<svg width="1920" height="707" viewBox="0 0 1920 707" fill="none" xmlns="http://www.w3.org/2000/svg">
<rect width="1920" height="707" fill="#7E52AE"/>
<path d="M725.148 151V106.2H737.564L755.484 135.448H748.956L766.364 106.2H778.78L778.908 151H765.148L765.02 126.936H767.196L755.292 146.968H748.636L736.22 126.936H738.908V151H725.148ZM785.763 151V115.992H800.227V151H785.763ZM792.995 113.176C790.349 113.176 788.237 112.472 786.659 111.064C785.08 109.656 784.291 107.907 784.291 105.816C784.291 103.725 785.08 101.976 786.659 100.568C788.237 99.16 790.349 98.456 792.995 98.456C795.64 98.456 797.752 99.1173 799.331 100.44C800.909 101.763 801.699 103.469 801.699 105.56C801.699 107.779 800.909 109.613 799.331 111.064C797.752 112.472 795.64 113.176 792.995 113.176ZM827.822 151V144.792L826.798 143.128V131.352C826.798 129.645 826.264 128.344 825.198 127.448C824.174 126.552 822.488 126.104 820.142 126.104C818.563 126.104 816.963 126.36 815.342 126.872C813.72 127.341 812.334 128.003 811.182 128.856L806.574 119.32C808.622 118.04 811.075 117.059 813.934 116.376C816.792 115.693 819.587 115.352 822.318 115.352C828.334 115.352 832.984 116.696 836.27 119.384C839.598 122.072 841.262 126.339 841.262 132.184V151H827.822ZM817.902 151.64C815.043 151.64 812.654 151.149 810.734 150.168C808.814 149.187 807.363 147.885 806.382 146.264C805.4 144.6 804.91 142.765 804.91 140.76C804.91 138.499 805.486 136.579 806.638 135C807.79 133.421 809.539 132.227 811.885 131.416C814.275 130.605 817.283 130.2 820.91 130.2H828.206V137.176H823.214C821.678 137.176 820.547 137.432 819.822 137.944C819.139 138.413 818.798 139.139 818.798 140.12C818.798 140.931 819.096 141.613 819.694 142.168C820.334 142.68 821.187 142.936 822.253 142.936C823.235 142.936 824.131 142.68 824.942 142.168C825.795 141.613 826.414 140.76 826.798 139.608L828.654 143.896C828.099 146.499 826.926 148.44 825.134 149.72C823.342 151 820.931 151.64 817.902 151.64ZM866.634 151.64C862.666 151.64 859.146 150.872 856.074 149.336C853.044 147.757 850.655 145.603 848.906 142.872C847.156 140.141 846.282 137.005 846.282 133.464C846.282 129.923 847.156 126.787 848.906 124.056C850.655 121.325 853.044 119.192 856.074 117.656C859.146 116.12 862.666 115.352 866.634 115.352C870.602 115.352 874.122 116.12 877.194 117.656C880.266 119.192 882.655 121.325 884.362 124.056C886.111 126.787 886.986 129.923 886.986 133.464C886.986 137.005 886.111 140.141 884.362 142.872C882.655 145.603 880.266 147.757 877.194 149.336C874.122 150.872 870.602 151.64 866.634 151.64ZM866.634 140.376C867.7 140.376 868.66 140.12 869.514 139.608C870.367 139.096 871.05 138.328 871.562 137.304C872.074 136.237 872.33 134.957 872.33 133.464C872.33 131.928 872.074 130.669 871.562 129.688C871.05 128.664 870.367 127.896 869.514 127.384C868.66 126.872 867.7 126.616 866.634 126.616C865.567 126.616 864.607 126.872 863.753 127.384C862.9 127.896 862.218 128.664 861.706 129.688C861.194 130.669 860.938 131.928 860.938 133.464C860.938 134.957 861.194 136.237 861.706 137.304C862.218 138.328 862.9 139.096 863.753 139.608C864.607 140.12 865.567 140.376 866.634 140.376ZM906.105 151.64C903.331 151.64 900.814 151.085 898.553 149.976C896.334 148.824 894.585 147.053 893.305 144.664C892.025 142.232 891.385 139.117 891.385 135.32V115.992H905.849V132.824C905.849 135.299 906.254 137.027 907.065 138.008C907.875 138.989 908.985 139.48 910.393 139.48C911.246 139.48 912.035 139.267 912.761 138.84C913.529 138.371 914.147 137.624 914.617 136.6C915.086 135.533 915.321 134.147 915.321 132.44V115.992H929.785V151H916.025V140.888L918.777 143.64C917.539 146.371 915.769 148.397 913.465 149.72C911.203 151 908.75 151.64 906.105 151.64ZM955.836 151V106.2H968.252L986.172 135.448H979.644L997.052 106.2H1009.47L1009.6 151H995.836L995.708 126.936H997.884L985.979 146.968H979.324L966.908 126.936H969.596V151H955.836ZM1037.63 151V144.792L1036.61 143.128V131.352C1036.61 129.645 1036.08 128.344 1035.01 127.448C1033.99 126.552 1032.3 126.104 1029.95 126.104C1028.38 126.104 1026.78 126.36 1025.15 126.872C1023.53 127.341 1022.15 128.003 1020.99 128.856L1016.39 119.32C1018.43 118.04 1020.89 117.059 1023.75 116.376C1026.6 115.693 1029.4 115.352 1032.13 115.352C1038.15 115.352 1042.8 116.696 1046.08 119.384C1049.41 122.072 1051.07 126.339 1051.07 132.184V151H1037.63ZM1027.71 151.64C1024.86 151.64 1022.47 151.149 1020.55 150.168C1018.63 149.187 1017.18 147.885 1016.19 146.264C1015.21 144.6 1014.72 142.765 1014.72 140.76C1014.72 138.499 1015.3 136.579 1016.45 135C1017.6 133.421 1019.35 132.227 1021.7 131.416C1024.09 130.605 1027.1 130.2 1030.72 130.2H1038.02V137.176H1033.03C1031.49 137.176 1030.36 137.432 1029.63 137.944C1028.95 138.413 1028.61 139.139 1028.61 140.12C1028.61 140.931 1028.91 141.613 1029.51 142.168C1030.15 142.68 1031 142.936 1032.07 142.936C1033.05 142.936 1033.94 142.68 1034.75 142.168C1035.61 141.613 1036.23 140.76 1036.61 139.608L1038.47 143.896C1037.91 146.499 1036.74 148.44 1034.95 149.72C1033.15 151 1030.74 151.64 1027.71 151.64ZM1057.33 151V115.992H1071.79V151H1057.33ZM1064.56 113.176C1061.91 113.176 1059.8 112.472 1058.22 111.064C1056.64 109.656 1055.85 107.907 1055.85 105.816C1055.85 103.725 1056.64 101.976 1058.22 100.568C1059.8 99.16 1061.91 98.456 1064.56 98.456C1067.2 98.456 1069.31 99.1173 1070.89 100.44C1072.47 101.763 1073.26 103.469 1073.26 105.56C1073.26 107.779 1072.47 109.613 1070.89 111.064C1069.31 112.472 1067.2 113.176 1064.56 113.176ZM1091.9 151.64C1088.91 151.64 1085.97 151.32 1083.06 150.68C1080.16 150.04 1077.82 149.208 1076.02 148.184L1079.99 138.648C1081.66 139.629 1083.58 140.397 1085.75 140.952C1087.97 141.507 1090.13 141.784 1092.22 141.784C1093.97 141.784 1095.14 141.635 1095.74 141.336C1096.38 141.037 1096.7 140.632 1096.7 140.12C1096.7 139.608 1096.33 139.245 1095.61 139.032C1094.88 138.776 1093.92 138.584 1092.73 138.456C1091.53 138.328 1090.21 138.179 1088.76 138.008C1087.35 137.795 1085.92 137.496 1084.47 137.112C1083.02 136.728 1081.7 136.152 1080.5 135.384C1079.31 134.616 1078.35 133.592 1077.62 132.312C1076.9 130.989 1076.54 129.325 1076.54 127.32C1076.54 125.101 1077.2 123.096 1078.52 121.304C1079.89 119.512 1081.89 118.083 1084.54 117.016C1087.22 115.907 1090.53 115.352 1094.46 115.352C1097.02 115.352 1099.58 115.587 1102.14 116.056C1104.7 116.525 1106.89 117.251 1108.73 118.232L1104.76 127.768C1102.97 126.787 1101.2 126.125 1099.45 125.784C1097.74 125.4 1096.14 125.208 1094.65 125.208C1092.81 125.208 1091.55 125.379 1090.87 125.72C1090.23 126.061 1089.91 126.445 1089.91 126.872C1089.91 127.384 1090.27 127.768 1091 128.024C1091.73 128.28 1092.69 128.472 1093.88 128.6C1095.07 128.728 1096.38 128.899 1097.78 129.112C1099.23 129.283 1100.66 129.581 1102.07 130.008C1103.52 130.392 1104.85 130.968 1106.04 131.736C1107.23 132.504 1108.19 133.549 1108.92 134.872C1109.65 136.152 1110.01 137.795 1110.01 139.8C1110.01 141.891 1109.35 143.853 1108.02 145.688C1106.7 147.48 1104.7 148.931 1102.01 150.04C1099.32 151.107 1095.95 151.64 1091.9 151.64ZM1132.88 151.64C1128.92 151.64 1125.4 150.872 1122.32 149.336C1119.29 147.757 1116.9 145.603 1115.16 142.872C1113.41 140.141 1112.53 137.005 1112.53 133.464C1112.53 129.923 1113.41 126.787 1115.16 124.056C1116.9 121.325 1119.29 119.192 1122.32 117.656C1125.4 116.12 1128.92 115.352 1132.88 115.352C1136.85 115.352 1140.37 116.12 1143.44 117.656C1146.52 119.192 1148.9 121.325 1150.61 124.056C1152.36 126.787 1153.24 129.923 1153.24 133.464C1153.24 137.005 1152.36 140.141 1150.61 142.872C1148.9 145.603 1146.52 147.757 1143.44 149.336C1140.37 150.872 1136.85 151.64 1132.88 151.64ZM1132.88 140.376C1133.95 140.376 1134.91 140.12 1135.76 139.608C1136.62 139.096 1137.3 138.328 1137.81 137.304C1138.32 136.237 1138.58 134.957 1138.58 133.464C1138.58 131.928 1138.32 130.669 1137.81 129.688C1137.3 128.664 1136.62 127.896 1135.76 127.384C1134.91 126.872 1133.95 126.616 1132.88 126.616C1131.82 126.616 1130.86 126.872 1130 127.384C1129.15 127.896 1128.47 128.664 1127.96 129.688C1127.44 130.669 1127.19 131.928 1127.19 133.464C1127.19 134.957 1127.44 136.237 1127.96 137.304C1128.47 138.328 1129.15 139.096 1130 139.608C1130.86 140.12 1131.82 140.376 1132.88 140.376ZM1182.08 115.352C1184.77 115.352 1187.2 115.907 1189.38 117.016C1191.55 118.083 1193.26 119.768 1194.5 122.072C1195.78 124.376 1196.42 127.363 1196.42 131.032V151H1181.95V133.528C1181.95 131.352 1181.57 129.816 1180.8 128.92C1180.03 127.981 1178.99 127.512 1177.67 127.512C1176.69 127.512 1175.77 127.747 1174.91 128.216C1174.1 128.643 1173.44 129.368 1172.93 130.392C1172.46 131.416 1172.23 132.803 1172.23 134.552V151H1157.76V115.992H1171.52V126.232L1168.77 123.288C1170.14 120.643 1171.97 118.659 1174.27 117.336C1176.62 116.013 1179.22 115.352 1182.08 115.352Z" fill="white"/>
<path opacity="0.8" d="M672.719 218V195.6H682.415C684.42 195.6 686.148 195.931 687.599 196.592C689.049 197.232 690.169 198.16 690.959 199.376C691.748 200.592 692.143 202.043 692.143 203.728C692.143 205.392 691.748 206.832 690.959 208.048C690.169 209.264 689.049 210.203 687.599 210.864C686.148 211.504 684.42 211.824 682.415 211.824H675.599L677.903 209.488V218H672.719ZM677.903 210.064L675.599 207.6H682.127C683.727 207.6 684.921 207.259 685.711 206.576C686.5 205.893 686.895 204.944 686.895 203.728C686.895 202.491 686.5 201.531 685.711 200.848C684.921 200.165 683.727 199.824 682.127 199.824H675.599L677.903 197.36V210.064ZM703.068 218.256C701.639 218.256 700.359 217.979 699.228 217.424C698.119 216.869 697.255 216.027 696.636 214.896C696.017 213.744 695.708 212.283 695.708 210.512V200.784H700.7V209.776C700.7 211.205 700.999 212.261 701.596 212.944C702.215 213.605 703.079 213.936 704.188 213.936C704.956 213.936 705.639 213.776 706.236 213.456C706.833 213.115 707.303 212.603 707.644 211.92C707.985 211.216 708.156 210.341 708.156 209.296V200.784H713.148V218H708.412V213.264L709.276 214.64C708.7 215.835 707.847 216.741 706.716 217.36C705.607 217.957 704.391 218.256 703.068 218.256ZM717.773 218V200.784H722.541V205.648L721.869 204.24C722.381 203.024 723.202 202.107 724.333 201.488C725.463 200.848 726.839 200.528 728.461 200.528V205.136C728.247 205.115 728.055 205.104 727.885 205.104C727.714 205.083 727.533 205.072 727.341 205.072C725.975 205.072 724.866 205.467 724.013 206.256C723.181 207.024 722.765 208.229 722.765 209.872V218H717.773ZM731.46 218V200.784H736.228V205.648L735.556 204.24C736.068 203.024 736.89 202.107 738.02 201.488C739.151 200.848 740.527 200.528 742.148 200.528V205.136C741.935 205.115 741.743 205.104 741.572 205.104C741.402 205.083 741.22 205.072 741.028 205.072C739.663 205.072 738.554 205.467 737.7 206.256C736.868 207.024 736.452 208.229 736.452 209.872V218H731.46ZM745.85 218V200.4C745.85 198.459 746.426 196.912 747.578 195.76C748.73 194.587 750.372 194 752.506 194C753.231 194 753.924 194.075 754.586 194.224C755.268 194.373 755.844 194.608 756.314 194.928L755.002 198.544C754.724 198.352 754.415 198.203 754.074 198.096C753.732 197.989 753.37 197.936 752.986 197.936C752.26 197.936 751.695 198.149 751.29 198.576C750.906 198.981 750.714 199.6 750.714 200.432V202.032L750.842 204.176V218H745.85ZM743.194 205.008V201.168H755.13V205.008H743.194ZM765.942 218.256C763.979 218.256 762.251 217.872 760.758 217.104C759.286 216.336 758.144 215.291 757.334 213.968C756.523 212.624 756.118 211.099 756.118 209.392C756.118 207.664 756.512 206.139 757.302 204.816C758.112 203.472 759.211 202.427 760.598 201.68C761.984 200.912 763.552 200.528 765.302 200.528C766.987 200.528 768.502 200.891 769.846 201.616C771.211 202.32 772.288 203.344 773.078 204.688C773.867 206.011 774.262 207.6 774.262 209.456C774.262 209.648 774.251 209.872 774.23 210.128C774.208 210.363 774.187 210.587 774.166 210.8H760.182V207.888H771.542L769.622 208.752C769.622 207.856 769.44 207.077 769.078 206.416C768.715 205.755 768.214 205.243 767.574 204.88C766.934 204.496 766.187 204.304 765.334 204.304C764.48 204.304 763.723 204.496 763.062 204.88C762.422 205.243 761.92 205.765 761.558 206.448C761.195 207.109 761.014 207.899 761.014 208.816V209.584C761.014 210.523 761.216 211.355 761.622 212.08C762.048 212.784 762.635 213.328 763.382 213.712C764.15 214.075 765.046 214.256 766.07 214.256C766.987 214.256 767.787 214.117 768.47 213.84C769.174 213.563 769.814 213.147 770.39 212.592L773.046 215.472C772.256 216.368 771.264 217.061 770.07 217.552C768.875 218.021 767.499 218.256 765.942 218.256ZM785.905 218.256C784.049 218.256 782.396 217.883 780.945 217.136C779.495 216.368 778.353 215.312 777.521 213.968C776.711 212.624 776.305 211.099 776.305 209.392C776.305 207.664 776.711 206.139 777.521 204.816C778.353 203.472 779.495 202.427 780.945 201.68C782.396 200.912 784.049 200.528 785.905 200.528C787.719 200.528 789.297 200.912 790.641 201.68C791.985 202.427 792.977 203.504 793.617 204.912L789.745 206.992C789.297 206.181 788.732 205.584 788.049 205.2C787.388 204.816 786.663 204.624 785.873 204.624C785.02 204.624 784.252 204.816 783.569 205.2C782.887 205.584 782.343 206.128 781.937 206.832C781.553 207.536 781.361 208.389 781.361 209.392C781.361 210.395 781.553 211.248 781.937 211.952C782.343 212.656 782.887 213.2 783.569 213.584C784.252 213.968 785.02 214.16 785.873 214.16C786.663 214.16 787.388 213.979 788.049 213.616C788.732 213.232 789.297 212.624 789.745 211.792L793.617 213.904C792.977 215.291 791.985 216.368 790.641 217.136C789.297 217.883 787.719 218.256 785.905 218.256ZM803.782 218.256C801.755 218.256 800.176 217.744 799.046 216.72C797.915 215.675 797.35 214.128 797.35 212.08V196.976H802.342V212.016C802.342 212.741 802.534 213.307 802.918 213.712C803.302 214.096 803.824 214.288 804.486 214.288C805.275 214.288 805.947 214.075 806.502 213.648L807.846 217.168C807.334 217.531 806.715 217.808 805.99 218C805.286 218.171 804.55 218.256 803.782 218.256ZM794.694 205.008V201.168H806.63V205.008H794.694ZM830.782 218.384C829.054 218.384 827.444 218.107 825.95 217.552C824.478 216.976 823.198 216.165 822.11 215.12C821.022 214.075 820.169 212.848 819.55 211.44C818.953 210.032 818.654 208.485 818.654 206.8C818.654 205.115 818.953 203.568 819.55 202.16C820.169 200.752 821.022 199.525 822.11 198.48C823.22 197.435 824.51 196.635 825.982 196.08C827.454 195.504 829.065 195.216 830.814 195.216C832.756 195.216 834.505 195.557 836.062 196.24C837.641 196.901 838.964 197.883 840.03 199.184L836.702 202.256C835.934 201.381 835.081 200.731 834.142 200.304C833.204 199.856 832.18 199.632 831.07 199.632C830.025 199.632 829.065 199.803 828.19 200.144C827.316 200.485 826.558 200.976 825.918 201.616C825.278 202.256 824.777 203.013 824.414 203.888C824.073 204.763 823.902 205.733 823.902 206.8C823.902 207.867 824.073 208.837 824.414 209.712C824.777 210.587 825.278 211.344 825.918 211.984C826.558 212.624 827.316 213.115 828.19 213.456C829.065 213.797 830.025 213.968 831.07 213.968C832.18 213.968 833.204 213.755 834.142 213.328C835.081 212.88 835.934 212.208 836.702 211.312L840.03 214.384C838.964 215.685 837.641 216.677 836.062 217.36C834.505 218.043 832.745 218.384 830.782 218.384ZM853.645 218V214.64L853.325 213.904V207.888C853.325 206.821 852.995 205.989 852.333 205.392C851.693 204.795 850.701 204.496 849.357 204.496C848.44 204.496 847.533 204.645 846.637 204.944C845.763 205.221 845.016 205.605 844.397 206.096L842.605 202.608C843.544 201.947 844.675 201.435 845.997 201.072C847.32 200.709 848.664 200.528 850.029 200.528C852.653 200.528 854.691 201.147 856.141 202.384C857.592 203.621 858.317 205.552 858.317 208.176V218H853.645ZM848.397 218.256C847.053 218.256 845.901 218.032 844.941 217.584C843.981 217.115 843.245 216.485 842.733 215.696C842.221 214.907 841.965 214.021 841.965 213.04C841.965 212.016 842.211 211.12 842.701 210.352C843.213 209.584 844.013 208.987 845.101 208.56C846.189 208.112 847.608 207.888 849.357 207.888H853.933V210.8H849.901C848.728 210.8 847.917 210.992 847.469 211.376C847.043 211.76 846.829 212.24 846.829 212.816C846.829 213.456 847.075 213.968 847.565 214.352C848.077 214.715 848.771 214.896 849.645 214.896C850.477 214.896 851.224 214.704 851.885 214.32C852.547 213.915 853.027 213.328 853.325 212.56L854.093 214.864C853.731 215.973 853.069 216.816 852.109 217.392C851.149 217.968 849.912 218.256 848.397 218.256ZM862.835 218V200.784H867.603V205.648L866.931 204.24C867.443 203.024 868.265 202.107 869.395 201.488C870.526 200.848 871.902 200.528 873.523 200.528V205.136C873.31 205.115 873.118 205.104 872.947 205.104C872.777 205.083 872.595 205.072 872.403 205.072C871.038 205.072 869.929 205.467 869.075 206.256C868.243 207.024 867.827 208.229 867.827 209.872V218H862.835ZM884.911 218.256C882.948 218.256 881.22 217.872 879.727 217.104C878.255 216.336 877.113 215.291 876.303 213.968C875.492 212.624 875.087 211.099 875.087 209.392C875.087 207.664 875.481 206.139 876.271 204.816C877.081 203.472 878.18 202.427 879.567 201.68C880.953 200.912 882.521 200.528 884.271 200.528C885.956 200.528 887.471 200.891 888.815 201.616C890.18 202.32 891.257 203.344 892.047 204.688C892.836 206.011 893.231 207.6 893.231 209.456C893.231 209.648 893.22 209.872 893.199 210.128C893.177 210.363 893.156 210.587 893.135 210.8H879.151V207.888H890.51L888.591 208.752C888.591 207.856 888.409 207.077 888.047 206.416C887.684 205.755 887.183 205.243 886.543 204.88C885.903 204.496 885.156 204.304 884.303 204.304C883.449 204.304 882.692 204.496 882.031 204.88C881.391 205.243 880.889 205.765 880.527 206.448C880.164 207.109 879.983 207.899 879.983 208.816V209.584C879.983 210.523 880.185 211.355 880.591 212.08C881.017 212.784 881.604 213.328 882.351 213.712C883.119 214.075 884.015 214.256 885.039 214.256C885.956 214.256 886.756 214.117 887.439 213.84C888.143 213.563 888.783 213.147 889.359 212.592L892.015 215.472C891.225 216.368 890.233 217.061 889.039 217.552C887.844 218.021 886.468 218.256 884.911 218.256ZM906.225 218V200.4C906.225 198.459 906.801 196.912 907.953 195.76C909.105 194.587 910.747 194 912.881 194C913.606 194 914.299 194.075 914.961 194.224C915.643 194.373 916.219 194.608 916.689 194.928L915.377 198.544C915.099 198.352 914.79 198.203 914.449 198.096C914.107 197.989 913.745 197.936 913.361 197.936C912.635 197.936 912.07 198.149 911.665 198.576C911.281 198.981 911.089 199.6 911.089 200.432V202.032L911.217 204.176V218H906.225ZM903.569 205.008V201.168H915.505V205.008H903.569ZM925.965 218.256C924.13 218.256 922.498 217.872 921.069 217.104C919.661 216.336 918.541 215.291 917.709 213.968C916.898 212.624 916.493 211.099 916.493 209.392C916.493 207.664 916.898 206.139 917.709 204.816C918.541 203.472 919.661 202.427 921.069 201.68C922.498 200.912 924.13 200.528 925.965 200.528C927.778 200.528 929.399 200.912 930.829 201.68C932.258 202.427 933.378 203.461 934.189 204.784C934.999 206.107 935.405 207.643 935.405 209.392C935.405 211.099 934.999 212.624 934.189 213.968C933.378 215.291 932.258 216.336 930.829 217.104C929.399 217.872 927.778 218.256 925.965 218.256ZM925.965 214.16C926.797 214.16 927.543 213.968 928.205 213.584C928.866 213.2 929.389 212.656 929.773 211.952C930.157 211.227 930.349 210.373 930.349 209.392C930.349 208.389 930.157 207.536 929.773 206.832C929.389 206.128 928.866 205.584 928.205 205.2C927.543 204.816 926.797 204.624 925.965 204.624C925.133 204.624 924.386 204.816 923.725 205.2C923.063 205.584 922.53 206.128 922.125 206.832C921.741 207.536 921.549 208.389 921.549 209.392C921.549 210.373 921.741 211.227 922.125 211.952C922.53 212.656 923.063 213.2 923.725 213.584C924.386 213.968 925.133 214.16 925.965 214.16ZM938.742 218V200.784H943.51V205.648L942.838 204.24C943.35 203.024 944.171 202.107 945.302 201.488C946.432 200.848 947.808 200.528 949.43 200.528V205.136C949.216 205.115 949.024 205.104 948.854 205.104C948.683 205.083 948.502 205.072 948.31 205.072C946.944 205.072 945.835 205.467 944.982 206.256C944.15 207.024 943.734 208.229 943.734 209.872V218H938.742ZM967.505 218V208.848L968.689 211.984L958.833 195.6H964.337L971.889 208.176H968.721L976.305 195.6H981.393L971.537 211.984L972.689 208.848V218H967.505ZM989.496 218.256C987.661 218.256 986.029 217.872 984.6 217.104C983.192 216.336 982.072 215.291 981.24 213.968C980.429 212.624 980.024 211.099 980.024 209.392C980.024 207.664 980.429 206.139 981.24 204.816C982.072 203.472 983.192 202.427 984.6 201.68C986.029 200.912 987.661 200.528 989.496 200.528C991.309 200.528 992.931 200.912 994.36 201.68C995.789 202.427 996.909 203.461 997.72 204.784C998.531 206.107 998.936 207.643 998.936 209.392C998.936 211.099 998.531 212.624 997.72 213.968C996.909 215.291 995.789 216.336 994.36 217.104C992.931 217.872 991.309 218.256 989.496 218.256ZM989.496 214.16C990.328 214.16 991.075 213.968 991.736 213.584C992.397 213.2 992.92 212.656 993.304 211.952C993.688 211.227 993.88 210.373 993.88 209.392C993.88 208.389 993.688 207.536 993.304 206.832C992.92 206.128 992.397 205.584 991.736 205.2C991.075 204.816 990.328 204.624 989.496 204.624C988.664 204.624 987.917 204.816 987.256 205.2C986.595 205.584 986.061 206.128 985.656 206.832C985.272 207.536 985.08 208.389 985.08 209.392C985.08 210.373 985.272 211.227 985.656 211.952C986.061 212.656 986.595 213.2 987.256 213.584C987.917 213.968 988.664 214.16 989.496 214.16ZM1009.54 218.256C1008.11 218.256 1006.83 217.979 1005.7 217.424C1004.59 216.869 1003.72 216.027 1003.1 214.896C1002.49 213.744 1002.18 212.283 1002.18 210.512V200.784H1007.17V209.776C1007.17 211.205 1007.47 212.261 1008.06 212.944C1008.68 213.605 1009.55 213.936 1010.66 213.936C1011.42 213.936 1012.11 213.776 1012.7 213.456C1013.3 213.115 1013.77 212.603 1014.11 211.92C1014.45 211.216 1014.62 210.341 1014.62 209.296V200.784H1019.62V218H1014.88V213.264L1015.74 214.64C1015.17 215.835 1014.32 216.741 1013.18 217.36C1012.08 217.957 1010.86 218.256 1009.54 218.256ZM1024.24 218V200.784H1029.01V205.648L1028.34 204.24C1028.85 203.024 1029.67 202.107 1030.8 201.488C1031.93 200.848 1033.31 200.528 1034.93 200.528V205.136C1034.72 205.115 1034.52 205.104 1034.35 205.104C1034.18 205.083 1034 205.072 1033.81 205.072C1032.44 205.072 1031.33 205.467 1030.48 206.256C1029.65 207.024 1029.23 208.229 1029.23 209.872V218H1024.24ZM1052.24 205.68H1062.99V209.84H1052.24V205.68ZM1052.62 218H1047.44V195.6H1064.37V199.76H1052.62V218ZM1074.38 218.256C1072.95 218.256 1071.67 217.979 1070.54 217.424C1069.43 216.869 1068.57 216.027 1067.95 214.896C1067.33 213.744 1067.02 212.283 1067.02 210.512V200.784H1072.01V209.776C1072.01 211.205 1072.31 212.261 1072.91 212.944C1073.53 213.605 1074.39 213.936 1075.5 213.936C1076.27 213.936 1076.95 213.776 1077.55 213.456C1078.15 213.115 1078.62 212.603 1078.96 211.92C1079.3 211.216 1079.47 210.341 1079.47 209.296V200.784H1084.46V218H1079.72V213.264L1080.59 214.64C1080.01 215.835 1079.16 216.741 1078.03 217.36C1076.92 217.957 1075.7 218.256 1074.38 218.256ZM1089.09 218V200.784H1093.85V205.648L1093.18 204.24C1093.69 203.024 1094.51 202.107 1095.65 201.488C1096.78 200.848 1098.15 200.528 1099.77 200.528V205.136C1099.56 205.115 1099.37 205.104 1099.2 205.104C1099.03 205.083 1098.85 205.072 1098.65 205.072C1097.29 205.072 1096.18 205.467 1095.33 206.256C1094.49 207.024 1094.08 208.229 1094.08 209.872V218H1089.09ZM1102.77 218V200.784H1107.54V205.648L1106.87 204.24C1107.38 203.024 1108.2 202.107 1109.33 201.488C1110.46 200.848 1111.84 200.528 1113.46 200.528V205.136C1113.25 205.115 1113.06 205.104 1112.88 205.104C1112.71 205.083 1112.53 205.072 1112.34 205.072C1110.98 205.072 1109.87 205.467 1109.01 206.256C1108.18 207.024 1107.76 208.229 1107.76 209.872V218H1102.77ZM1119.2 224.464C1118.3 224.464 1117.42 224.325 1116.54 224.048C1115.67 223.771 1114.95 223.387 1114.4 222.896L1116.22 219.344C1116.61 219.685 1117.04 219.952 1117.53 220.144C1118.05 220.336 1118.55 220.432 1119.04 220.432C1119.74 220.432 1120.3 220.261 1120.7 219.92C1121.13 219.6 1121.51 219.056 1121.85 218.288L1122.75 216.176L1123.13 215.632L1129.31 200.784H1134.11L1126.33 219.056C1125.78 220.443 1125.14 221.531 1124.41 222.32C1123.71 223.109 1122.92 223.664 1122.05 223.984C1121.19 224.304 1120.24 224.464 1119.2 224.464ZM1122.14 218.672L1114.46 200.784H1119.61L1125.57 215.184L1122.14 218.672ZM1150.36 205.68H1161.11V209.84H1150.36V205.68ZM1150.75 218H1145.56V195.6H1162.49V199.76H1150.75V218ZM1165.34 218V200.784H1170.1V205.648L1169.43 204.24C1169.94 203.024 1170.76 202.107 1171.9 201.488C1173.03 200.848 1174.4 200.528 1176.02 200.528V205.136C1175.81 205.115 1175.62 205.104 1175.45 205.104C1175.28 205.083 1175.1 205.072 1174.9 205.072C1173.54 205.072 1172.43 205.467 1171.58 206.256C1170.74 207.024 1170.33 208.229 1170.33 209.872V218H1165.34ZM1179.02 218V200.784H1184.01V218H1179.02ZM1181.52 198.384C1180.6 198.384 1179.85 198.117 1179.28 197.584C1178.7 197.051 1178.41 196.389 1178.41 195.6C1178.41 194.811 1178.7 194.149 1179.28 193.616C1179.85 193.083 1180.6 192.816 1181.52 192.816C1182.44 192.816 1183.18 193.072 1183.76 193.584C1184.33 194.075 1184.62 194.715 1184.62 195.504C1184.62 196.336 1184.33 197.029 1183.76 197.584C1183.2 198.117 1182.46 198.384 1181.52 198.384ZM1197.19 218.256C1195.23 218.256 1193.5 217.872 1192.01 217.104C1190.54 216.336 1189.39 215.291 1188.58 213.968C1187.77 212.624 1187.37 211.099 1187.37 209.392C1187.37 207.664 1187.76 206.139 1188.55 204.816C1189.36 203.472 1190.46 202.427 1191.85 201.68C1193.23 200.912 1194.8 200.528 1196.55 200.528C1198.24 200.528 1199.75 200.891 1201.1 201.616C1202.46 202.32 1203.54 203.344 1204.33 204.688C1205.12 206.011 1205.51 207.6 1205.51 209.456C1205.51 209.648 1205.5 209.872 1205.48 210.128C1205.46 210.363 1205.44 210.587 1205.42 210.8H1191.43V207.888H1202.79L1200.87 208.752C1200.87 207.856 1200.69 207.077 1200.33 206.416C1199.97 205.755 1199.46 205.243 1198.82 204.88C1198.18 204.496 1197.44 204.304 1196.58 204.304C1195.73 204.304 1194.97 204.496 1194.31 204.88C1193.67 205.243 1193.17 205.765 1192.81 206.448C1192.45 207.109 1192.26 207.899 1192.26 208.816V209.584C1192.26 210.523 1192.47 211.355 1192.87 212.08C1193.3 212.784 1193.89 213.328 1194.63 213.712C1195.4 214.075 1196.3 214.256 1197.32 214.256C1198.24 214.256 1199.04 214.117 1199.72 213.84C1200.42 213.563 1201.06 213.147 1201.64 212.592L1204.3 215.472C1203.51 216.368 1202.51 217.061 1201.32 217.552C1200.13 218.021 1198.75 218.256 1197.19 218.256ZM1219.3 200.528C1220.66 200.528 1221.88 200.805 1222.95 201.36C1224.04 201.893 1224.89 202.725 1225.51 203.856C1226.13 204.965 1226.44 206.395 1226.44 208.144V218H1221.44V208.912C1221.44 207.525 1221.13 206.501 1220.52 205.84C1219.92 205.179 1219.06 204.848 1217.96 204.848C1217.17 204.848 1216.45 205.019 1215.81 205.36C1215.19 205.68 1214.7 206.181 1214.34 206.864C1214 207.547 1213.83 208.421 1213.83 209.488V218H1208.84V200.784H1213.6V205.552L1212.71 204.112C1213.33 202.96 1214.21 202.075 1215.36 201.456C1216.52 200.837 1217.83 200.528 1219.3 200.528ZM1238.48 218.256C1236.86 218.256 1235.39 217.893 1234.09 217.168C1232.79 216.421 1231.76 215.387 1230.99 214.064C1230.24 212.741 1229.87 211.184 1229.87 209.392C1229.87 207.579 1230.24 206.011 1230.99 204.688C1231.76 203.365 1232.79 202.341 1234.09 201.616C1235.39 200.891 1236.86 200.528 1238.48 200.528C1239.93 200.528 1241.2 200.848 1242.29 201.488C1243.37 202.128 1244.22 203.099 1244.81 204.4C1245.41 205.701 1245.71 207.365 1245.71 209.392C1245.71 211.397 1245.42 213.061 1244.85 214.384C1244.27 215.685 1243.44 216.656 1242.35 217.296C1241.28 217.936 1239.99 218.256 1238.48 218.256ZM1239.34 214.16C1240.15 214.16 1240.89 213.968 1241.55 213.584C1242.21 213.2 1242.73 212.656 1243.12 211.952C1243.52 211.227 1243.73 210.373 1243.73 209.392C1243.73 208.389 1243.52 207.536 1243.12 206.832C1242.73 206.128 1242.21 205.584 1241.55 205.2C1240.89 204.816 1240.15 204.624 1239.34 204.624C1238.51 204.624 1237.76 204.816 1237.1 205.2C1236.44 205.584 1235.91 206.128 1235.5 206.832C1235.12 207.536 1234.93 208.389 1234.93 209.392C1234.93 210.373 1235.12 211.227 1235.5 211.952C1235.91 212.656 1236.44 213.2 1237.1 213.584C1237.76 213.968 1238.51 214.16 1239.34 214.16ZM1243.85 218V214.48L1243.95 209.36L1243.63 204.272V194.256H1248.62V218H1243.85Z" fill="white"/>
<path d="M597.764 270.2H603.428V287H597.764V270.2ZM592.532 287H586.868V270.2H592.532V287ZM598.148 280.808H592.148V276.152H598.148V280.808ZM612.925 287.24C611.437 287.24 610.117 286.952 608.965 286.376C607.829 285.784 606.933 284.976 606.277 283.952C605.621 282.928 605.293 281.752 605.293 280.424C605.293 279.096 605.621 277.92 606.277 276.896C606.933 275.872 607.829 275.072 608.965 274.496C610.117 273.92 611.437 273.632 612.925 273.632C614.413 273.632 615.733 273.92 616.885 274.496C618.037 275.072 618.933 275.872 619.573 276.896C620.229 277.92 620.557 279.096 620.557 280.424C620.557 281.752 620.229 282.928 619.573 283.952C618.933 284.976 618.037 285.784 616.885 286.376C615.733 286.952 614.413 287.24 612.925 287.24ZM612.925 283.016C613.325 283.016 613.685 282.92 614.005 282.728C614.325 282.536 614.581 282.248 614.773 281.864C614.965 281.464 615.061 280.984 615.061 280.424C615.061 279.848 614.965 279.376 614.773 279.008C614.581 278.624 614.325 278.336 614.005 278.144C613.685 277.952 613.325 277.856 612.925 277.856C612.525 277.856 612.165 277.952 611.845 278.144C611.525 278.336 611.269 278.624 611.077 279.008C610.885 279.376 610.789 279.848 610.789 280.424C610.789 280.984 610.885 281.464 611.077 281.864C611.269 282.248 611.525 282.536 611.845 282.728C612.165 282.92 612.525 283.016 612.925 283.016ZM639.631 273.632C640.623 273.632 641.511 273.84 642.295 274.256C643.095 274.656 643.719 275.288 644.167 276.152C644.631 277.016 644.863 278.136 644.863 279.512V287H639.439V280.448C639.439 279.632 639.303 279.056 639.031 278.72C638.759 278.368 638.407 278.192 637.975 278.192C637.655 278.192 637.367 278.272 637.111 278.432C636.855 278.592 636.647 278.848 636.487 279.2C636.343 279.536 636.271 280 636.271 280.592V287H630.847V280.448C630.847 279.632 630.719 279.056 630.463 278.72C630.207 278.368 629.847 278.192 629.383 278.192C629.063 278.192 628.775 278.272 628.519 278.432C628.263 278.592 628.055 278.848 627.895 279.2C627.751 279.536 627.679 280 627.679 280.592V287H622.255V273.872H627.415V277.64L626.359 276.584C626.855 275.592 627.519 274.856 628.351 274.376C629.183 273.88 630.111 273.632 631.135 273.632C632.287 273.632 633.303 273.936 634.183 274.544C635.079 275.136 635.679 276.08 635.983 277.376L634.327 277.112C634.807 276.024 635.503 275.176 636.415 274.568C637.343 273.944 638.415 273.632 639.631 273.632ZM654.698 287.24C653.098 287.24 651.698 286.944 650.498 286.352C649.314 285.76 648.394 284.952 647.738 283.928C647.082 282.888 646.754 281.72 646.754 280.424C646.754 279.096 647.074 277.92 647.714 276.896C648.37 275.872 649.258 275.072 650.378 274.496C651.514 273.92 652.786 273.632 654.194 273.632C655.49 273.632 656.682 273.888 657.77 274.4C658.874 274.912 659.754 275.672 660.41 276.68C661.082 277.688 661.418 278.936 661.418 280.424C661.418 280.616 661.41 280.832 661.394 281.072C661.378 281.296 661.362 281.504 661.346 281.696H651.242V279.08H658.466L656.426 279.776C656.426 279.264 656.33 278.832 656.138 278.48C655.962 278.112 655.714 277.832 655.394 277.64C655.074 277.432 654.69 277.328 654.242 277.328C653.794 277.328 653.402 277.432 653.066 277.64C652.746 277.832 652.498 278.112 652.322 278.48C652.146 278.832 652.058 279.264 652.058 279.776V280.592C652.058 281.152 652.17 281.632 652.394 282.032C652.618 282.432 652.938 282.736 653.354 282.944C653.77 283.136 654.274 283.232 654.866 283.232C655.474 283.232 655.97 283.152 656.354 282.992C656.754 282.832 657.17 282.592 657.602 282.272L660.434 285.128C659.794 285.816 659.002 286.344 658.058 286.712C657.13 287.064 656.01 287.24 654.698 287.24Z" fill="white"/>
<path d="M688.044 287L695.388 270.2H700.956L708.3 287H702.444L697.02 272.888H699.228L693.804 287H688.044ZM692.412 284.072L693.852 279.992H701.58L703.02 284.072H692.412ZM717.796 287.24C716.596 287.24 715.628 287 714.892 286.52C714.156 286.04 713.62 285.296 713.284 284.288C712.964 283.28 712.804 281.992 712.804 280.424C712.804 278.872 712.98 277.6 713.332 276.608C713.684 275.6 714.228 274.856 714.964 274.376C715.716 273.88 716.66 273.632 717.796 273.632C718.948 273.632 720.004 273.904 720.964 274.448C721.924 274.992 722.692 275.776 723.268 276.8C723.844 277.808 724.132 279.016 724.132 280.424C724.132 281.832 723.844 283.048 723.268 284.072C722.692 285.08 721.924 285.864 720.964 286.424C720.004 286.968 718.948 287.24 717.796 287.24ZM709.036 287V269.192H714.46V275.624L714.22 280.424L714.196 285.224V287H709.036ZM716.5 283.016C716.9 283.016 717.26 282.92 717.58 282.728C717.9 282.536 718.156 282.248 718.348 281.864C718.54 281.464 718.636 280.984 718.636 280.424C718.636 279.848 718.54 279.376 718.348 279.008C718.156 278.624 717.9 278.336 717.58 278.144C717.26 277.952 716.9 277.856 716.5 277.856C716.1 277.856 715.74 277.952 715.42 278.144C715.1 278.336 714.844 278.624 714.652 279.008C714.46 279.376 714.364 279.848 714.364 280.424C714.364 280.984 714.46 281.464 714.652 281.864C714.844 282.248 715.1 282.536 715.42 282.728C715.74 282.92 716.1 283.016 716.5 283.016ZM732.777 287.24C731.289 287.24 729.969 286.952 728.817 286.376C727.681 285.784 726.785 284.976 726.129 283.952C725.473 282.928 725.145 281.752 725.145 280.424C725.145 279.096 725.473 277.92 726.129 276.896C726.785 275.872 727.681 275.072 728.817 274.496C729.969 273.92 731.289 273.632 732.777 273.632C734.265 273.632 735.585 273.92 736.737 274.496C737.889 275.072 738.785 275.872 739.425 276.896C740.081 277.92 740.409 279.096 740.409 280.424C740.409 281.752 740.081 282.928 739.425 283.952C738.785 284.976 737.889 285.784 736.737 286.376C735.585 286.952 734.265 287.24 732.777 287.24ZM732.777 283.016C733.177 283.016 733.537 282.92 733.857 282.728C734.177 282.536 734.433 282.248 734.625 281.864C734.817 281.464 734.913 280.984 734.913 280.424C734.913 279.848 734.817 279.376 734.625 279.008C734.433 278.624 734.177 278.336 733.857 278.144C733.537 277.952 733.177 277.856 732.777 277.856C732.377 277.856 732.017 277.952 731.697 278.144C731.377 278.336 731.121 278.624 730.929 279.008C730.737 279.376 730.641 279.848 730.641 280.424C730.641 280.984 730.737 281.464 730.929 281.864C731.121 282.248 731.377 282.536 731.697 282.728C732.017 282.92 732.377 283.016 732.777 283.016ZM747.578 287.24C746.538 287.24 745.594 287.032 744.746 286.616C743.914 286.184 743.258 285.52 742.778 284.624C742.298 283.712 742.058 282.544 742.058 281.12V273.872H747.482V280.184C747.482 281.112 747.634 281.76 747.938 282.128C748.242 282.496 748.658 282.68 749.186 282.68C749.506 282.68 749.802 282.6 750.074 282.44C750.362 282.264 750.594 281.984 750.77 281.6C750.946 281.2 751.034 280.68 751.034 280.04V273.872H756.458V287H751.298V283.208L752.33 284.24C751.866 285.264 751.202 286.024 750.338 286.52C749.49 287 748.57 287.24 747.578 287.24ZM765.2 287.24C763.392 287.24 761.984 286.808 760.976 285.944C759.968 285.064 759.464 283.72 759.464 281.912V270.92H764.888V281.864C764.888 282.264 764.992 282.576 765.2 282.8C765.424 283.024 765.696 283.136 766.016 283.136C766.48 283.136 766.888 283.016 767.24 282.776L768.536 286.544C768.12 286.784 767.616 286.96 767.024 287.072C766.448 287.184 765.84 287.24 765.2 287.24ZM757.664 278.552V274.592H767.576V278.552H757.664ZM785.306 287.384C782.73 287.384 780.722 286.688 779.282 285.296C777.842 283.904 777.122 281.952 777.122 279.44V270.2H782.786V279.272C782.786 280.552 783.018 281.464 783.482 282.008C783.946 282.536 784.57 282.8 785.354 282.8C786.154 282.8 786.778 282.536 787.226 282.008C787.69 281.464 787.922 280.552 787.922 279.272V270.2H793.49V279.44C793.49 281.952 792.77 283.904 791.33 285.296C789.89 286.688 787.882 287.384 785.306 287.384ZM801.055 287.24C799.935 287.24 798.831 287.12 797.743 286.88C796.655 286.64 795.775 286.328 795.103 285.944L796.591 282.368C797.215 282.736 797.935 283.024 798.751 283.232C799.583 283.44 800.391 283.544 801.175 283.544C801.831 283.544 802.271 283.488 802.495 283.376C802.735 283.264 802.855 283.112 802.855 282.92C802.855 282.728 802.719 282.592 802.447 282.512C802.175 282.416 801.815 282.344 801.367 282.296C800.919 282.248 800.423 282.192 799.879 282.128C799.351 282.048 798.815 281.936 798.271 281.792C797.727 281.648 797.231 281.432 796.783 281.144C796.335 280.856 795.975 280.472 795.703 279.992C795.431 279.496 795.295 278.872 795.295 278.12C795.295 277.288 795.543 276.536 796.039 275.864C796.551 275.192 797.303 274.656 798.295 274.256C799.303 273.84 800.543 273.632 802.015 273.632C802.975 273.632 803.935 273.72 804.895 273.896C805.855 274.072 806.679 274.344 807.367 274.712L805.879 278.288C805.207 277.92 804.543 277.672 803.887 277.544C803.247 277.4 802.647 277.328 802.087 277.328C801.399 277.328 800.927 277.392 800.671 277.52C800.431 277.648 800.311 277.792 800.311 277.952C800.311 278.144 800.447 278.288 800.719 278.384C800.991 278.48 801.351 278.552 801.799 278.6C802.247 278.648 802.735 278.712 803.263 278.792C803.807 278.856 804.343 278.968 804.871 279.128C805.415 279.272 805.911 279.488 806.359 279.776C806.807 280.064 807.167 280.456 807.439 280.952C807.711 281.432 807.847 282.048 807.847 282.8C807.847 283.584 807.599 284.32 807.103 285.008C806.607 285.68 805.855 286.224 804.847 286.64C803.839 287.04 802.575 287.24 801.055 287.24Z" fill="white"/>
<path d="M842.132 287.384C840.724 287.384 839.364 287.224 838.052 286.904C836.74 286.584 835.66 286.168 834.812 285.656L836.636 281.528C837.436 281.992 838.324 282.368 839.3 282.656C840.292 282.928 841.252 283.064 842.18 283.064C842.724 283.064 843.148 283.032 843.452 282.968C843.772 282.888 844.004 282.784 844.148 282.656C844.292 282.512 844.364 282.344 844.364 282.152C844.364 281.848 844.196 281.608 843.86 281.432C843.524 281.256 843.076 281.112 842.516 281C841.972 280.872 841.372 280.744 840.716 280.616C840.06 280.472 839.396 280.288 838.724 280.064C838.068 279.84 837.46 279.544 836.9 279.176C836.356 278.808 835.916 278.328 835.58 277.736C835.244 277.128 835.076 276.376 835.076 275.48C835.076 274.44 835.364 273.496 835.94 272.648C836.532 271.784 837.404 271.096 838.556 270.584C839.724 270.072 841.172 269.816 842.9 269.816C844.036 269.816 845.156 269.936 846.26 270.176C847.364 270.416 848.356 270.784 849.236 271.28L847.532 275.384C846.7 274.968 845.892 274.656 845.108 274.448C844.34 274.24 843.588 274.136 842.852 274.136C842.308 274.136 841.876 274.184 841.556 274.28C841.236 274.376 841.004 274.504 840.86 274.664C840.732 274.824 840.668 275 840.668 275.192C840.668 275.48 840.836 275.712 841.172 275.888C841.508 276.048 841.948 276.184 842.492 276.296C843.052 276.408 843.66 276.528 844.316 276.656C844.988 276.784 845.652 276.96 846.308 277.184C846.964 277.408 847.564 277.704 848.108 278.072C848.668 278.44 849.116 278.92 849.452 279.512C849.788 280.104 849.956 280.84 849.956 281.72C849.956 282.744 849.66 283.688 849.068 284.552C848.492 285.4 847.628 286.088 846.476 286.616C845.324 287.128 843.876 287.384 842.132 287.384ZM858.721 287.24C857.121 287.24 855.721 286.944 854.521 286.352C853.337 285.76 852.417 284.952 851.761 283.928C851.105 282.888 850.777 281.72 850.777 280.424C850.777 279.096 851.097 277.92 851.737 276.896C852.393 275.872 853.281 275.072 854.401 274.496C855.537 273.92 856.809 273.632 858.217 273.632C859.513 273.632 860.705 273.888 861.793 274.4C862.897 274.912 863.777 275.672 864.433 276.68C865.105 277.688 865.441 278.936 865.441 280.424C865.441 280.616 865.433 280.832 865.417 281.072C865.401 281.296 865.385 281.504 865.369 281.696H855.265V279.08H862.489L860.449 279.776C860.449 279.264 860.353 278.832 860.161 278.48C859.985 278.112 859.737 277.832 859.417 277.64C859.097 277.432 858.713 277.328 858.265 277.328C857.817 277.328 857.425 277.432 857.089 277.64C856.769 277.832 856.521 278.112 856.345 278.48C856.169 278.832 856.081 279.264 856.081 279.776V280.592C856.081 281.152 856.193 281.632 856.417 282.032C856.641 282.432 856.961 282.736 857.377 282.944C857.793 283.136 858.297 283.232 858.889 283.232C859.497 283.232 859.993 283.152 860.377 282.992C860.777 282.832 861.193 282.592 861.625 282.272L864.457 285.128C863.817 285.816 863.025 286.344 862.081 286.712C861.153 287.064 860.033 287.24 858.721 287.24ZM867.153 287V273.872H872.313V277.832L871.473 276.704C871.873 275.68 872.513 274.912 873.393 274.4C874.273 273.888 875.329 273.632 876.561 273.632V278.432C876.321 278.4 876.105 278.376 875.913 278.36C875.737 278.344 875.553 278.336 875.361 278.336C874.545 278.336 873.873 278.552 873.345 278.984C872.833 279.4 872.577 280.128 872.577 281.168V287H867.153ZM882.17 287L876.89 273.872H882.458L886.466 284.528H883.658L887.93 273.872H893.066L887.786 287H882.17ZM893.895 287V273.872H899.319V287H893.895ZM896.607 272.816C895.615 272.816 894.823 272.552 894.231 272.024C893.639 271.496 893.343 270.84 893.343 270.056C893.343 269.272 893.639 268.616 894.231 268.088C894.823 267.56 895.615 267.296 896.607 267.296C897.599 267.296 898.391 267.544 898.983 268.04C899.575 268.536 899.871 269.176 899.871 269.96C899.871 270.792 899.575 271.48 898.983 272.024C898.391 272.552 897.599 272.816 896.607 272.816ZM908.779 287.24C907.275 287.24 905.939 286.952 904.771 286.376C903.603 285.8 902.683 285 902.011 283.976C901.355 282.936 901.027 281.752 901.027 280.424C901.027 279.096 901.355 277.92 902.011 276.896C902.683 275.872 903.603 275.072 904.771 274.496C905.939 273.92 907.275 273.632 908.779 273.632C910.379 273.632 911.747 273.976 912.883 274.664C914.019 275.352 914.803 276.304 915.235 277.52L911.035 279.584C910.763 278.976 910.427 278.536 910.027 278.264C909.643 277.992 909.219 277.856 908.755 277.856C908.355 277.856 907.979 277.952 907.627 278.144C907.291 278.336 907.019 278.624 906.811 279.008C906.619 279.376 906.523 279.848 906.523 280.424C906.523 281 906.619 281.48 906.811 281.864C907.019 282.248 907.291 282.536 907.627 282.728C907.979 282.92 908.355 283.016 908.755 283.016C909.219 283.016 909.643 282.88 910.027 282.608C910.427 282.336 910.763 281.896 911.035 281.288L915.235 283.352C914.803 284.568 914.019 285.52 912.883 286.208C911.747 286.896 910.379 287.24 908.779 287.24ZM923.62 287.24C922.02 287.24 920.62 286.944 919.42 286.352C918.236 285.76 917.316 284.952 916.66 283.928C916.004 282.888 915.676 281.72 915.676 280.424C915.676 279.096 915.996 277.92 916.636 276.896C917.292 275.872 918.18 275.072 919.3 274.496C920.436 273.92 921.708 273.632 923.116 273.632C924.412 273.632 925.604 273.888 926.692 274.4C927.796 274.912 928.676 275.672 929.332 276.68C930.004 277.688 930.34 278.936 930.34 280.424C930.34 280.616 930.332 280.832 930.316 281.072C930.3 281.296 930.284 281.504 930.268 281.696H920.164V279.08H927.388L925.348 279.776C925.348 279.264 925.252 278.832 925.06 278.48C924.884 278.112 924.636 277.832 924.316 277.64C923.996 277.432 923.612 277.328 923.164 277.328C922.716 277.328 922.324 277.432 921.988 277.64C921.668 277.832 921.42 278.112 921.244 278.48C921.068 278.832 920.98 279.264 920.98 279.776V280.592C920.98 281.152 921.092 281.632 921.316 282.032C921.54 282.432 921.86 282.736 922.276 282.944C922.692 283.136 923.196 283.232 923.788 283.232C924.396 283.232 924.892 283.152 925.276 282.992C925.676 282.832 926.092 282.592 926.524 282.272L929.356 285.128C928.716 285.816 927.924 286.344 926.98 286.712C926.052 287.064 924.932 287.24 923.62 287.24ZM937.188 287.24C936.068 287.24 934.964 287.12 933.876 286.88C932.788 286.64 931.908 286.328 931.236 285.944L932.724 282.368C933.348 282.736 934.068 283.024 934.884 283.232C935.716 283.44 936.524 283.544 937.308 283.544C937.964 283.544 938.404 283.488 938.628 283.376C938.868 283.264 938.988 283.112 938.988 282.92C938.988 282.728 938.852 282.592 938.58 282.512C938.308 282.416 937.948 282.344 937.5 282.296C937.052 282.248 936.556 282.192 936.012 282.128C935.484 282.048 934.948 281.936 934.404 281.792C933.86 281.648 933.364 281.432 932.916 281.144C932.468 280.856 932.108 280.472 931.836 279.992C931.564 279.496 931.428 278.872 931.428 278.12C931.428 277.288 931.676 276.536 932.172 275.864C932.684 275.192 933.436 274.656 934.428 274.256C935.436 273.84 936.676 273.632 938.148 273.632C939.108 273.632 940.068 273.72 941.028 273.896C941.988 274.072 942.812 274.344 943.5 274.712L942.012 278.288C941.34 277.92 940.676 277.672 940.02 277.544C939.38 277.4 938.78 277.328 938.22 277.328C937.532 277.328 937.06 277.392 936.804 277.52C936.564 277.648 936.444 277.792 936.444 277.952C936.444 278.144 936.58 278.288 936.852 278.384C937.124 278.48 937.484 278.552 937.932 278.6C938.38 278.648 938.868 278.712 939.396 278.792C939.94 278.856 940.476 278.968 941.004 279.128C941.548 279.272 942.044 279.488 942.492 279.776C942.94 280.064 943.3 280.456 943.572 280.952C943.844 281.432 943.98 282.048 943.98 282.8C943.98 283.584 943.732 284.32 943.236 285.008C942.74 285.68 941.988 286.224 940.98 286.64C939.972 287.04 938.708 287.24 937.188 287.24Z" fill="white"/>
<path d="M980.556 287.384C979.212 287.384 977.964 287.176 976.812 286.76C975.676 286.328 974.684 285.72 973.836 284.936C973.004 284.152 972.356 283.224 971.892 282.152C971.428 281.08 971.196 279.896 971.196 278.6C971.196 277.304 971.428 276.12 971.892 275.048C972.356 273.976 973.004 273.048 973.836 272.264C974.684 271.48 975.676 270.88 976.812 270.464C977.964 270.032 979.212 269.816 980.556 269.816C982.204 269.816 983.66 270.104 984.924 270.68C986.204 271.256 987.26 272.088 988.092 273.176L984.516 276.368C984.02 275.744 983.468 275.264 982.86 274.928C982.268 274.576 981.596 274.4 980.844 274.4C980.252 274.4 979.716 274.496 979.236 274.688C978.756 274.88 978.34 275.16 977.988 275.528C977.652 275.896 977.388 276.344 977.196 276.872C977.004 277.384 976.908 277.96 976.908 278.6C976.908 279.24 977.004 279.824 977.196 280.352C977.388 280.864 977.652 281.304 977.988 281.672C978.34 282.04 978.756 282.32 979.236 282.512C979.716 282.704 980.252 282.8 980.844 282.8C981.596 282.8 982.268 282.632 982.86 282.296C983.468 281.944 984.02 281.456 984.516 280.832L988.092 284.024C987.26 285.096 986.204 285.928 984.924 286.52C983.66 287.096 982.204 287.384 980.556 287.384ZM996.12 287.24C994.632 287.24 993.312 286.952 992.16 286.376C991.024 285.784 990.128 284.976 989.472 283.952C988.816 282.928 988.488 281.752 988.488 280.424C988.488 279.096 988.816 277.92 989.472 276.896C990.128 275.872 991.024 275.072 992.16 274.496C993.312 273.92 994.632 273.632 996.12 273.632C997.608 273.632 998.928 273.92 1000.08 274.496C1001.23 275.072 1002.13 275.872 1002.77 276.896C1003.42 277.92 1003.75 279.096 1003.75 280.424C1003.75 281.752 1003.42 282.928 1002.77 283.952C1002.13 284.976 1001.23 285.784 1000.08 286.376C998.928 286.952 997.608 287.24 996.12 287.24ZM996.12 283.016C996.52 283.016 996.88 282.92 997.2 282.728C997.52 282.536 997.776 282.248 997.968 281.864C998.16 281.464 998.256 280.984 998.256 280.424C998.256 279.848 998.16 279.376 997.968 279.008C997.776 278.624 997.52 278.336 997.2 278.144C996.88 277.952 996.52 277.856 996.12 277.856C995.72 277.856 995.36 277.952 995.04 278.144C994.72 278.336 994.464 278.624 994.272 279.008C994.08 279.376 993.984 279.848 993.984 280.424C993.984 280.984 994.08 281.464 994.272 281.864C994.464 282.248 994.72 282.536 995.04 282.728C995.36 282.92 995.72 283.016 996.12 283.016ZM1014.57 273.632C1015.58 273.632 1016.49 273.84 1017.31 274.256C1018.12 274.656 1018.76 275.288 1019.23 276.152C1019.71 277.016 1019.95 278.136 1019.95 279.512V287H1014.52V280.448C1014.52 279.632 1014.38 279.056 1014.09 278.72C1013.8 278.368 1013.41 278.192 1012.91 278.192C1012.55 278.192 1012.2 278.28 1011.88 278.456C1011.58 278.616 1011.33 278.888 1011.14 279.272C1010.96 279.656 1010.87 280.176 1010.87 280.832V287H1005.45V273.872H1010.61V277.712L1009.58 276.608C1010.09 275.616 1010.78 274.872 1011.64 274.376C1012.52 273.88 1013.5 273.632 1014.57 273.632ZM1028.64 287.24C1026.83 287.24 1025.42 286.808 1024.41 285.944C1023.41 285.064 1022.9 283.72 1022.9 281.912V270.92H1028.33V281.864C1028.33 282.264 1028.43 282.576 1028.64 282.8C1028.86 283.024 1029.13 283.136 1029.45 283.136C1029.92 283.136 1030.33 283.016 1030.68 282.776L1031.97 286.544C1031.56 286.784 1031.05 286.96 1030.46 287.072C1029.89 287.184 1029.28 287.24 1028.64 287.24ZM1021.1 278.552V274.592H1031.01V278.552H1021.1ZM1041.28 287V284.672L1040.9 284.048V279.632C1040.9 278.992 1040.7 278.504 1040.3 278.168C1039.92 277.832 1039.28 277.664 1038.4 277.664C1037.81 277.664 1037.21 277.76 1036.6 277.952C1036 278.128 1035.48 278.376 1035.04 278.696L1033.32 275.12C1034.08 274.64 1035 274.272 1036.08 274.016C1037.15 273.76 1038.2 273.632 1039.22 273.632C1041.48 273.632 1043.22 274.136 1044.45 275.144C1045.7 276.152 1046.32 277.752 1046.32 279.944V287H1041.28ZM1037.56 287.24C1036.49 287.24 1035.6 287.056 1034.88 286.688C1034.16 286.32 1033.61 285.832 1033.24 285.224C1032.88 284.6 1032.69 283.912 1032.69 283.16C1032.69 282.312 1032.91 281.592 1033.34 281C1033.77 280.408 1034.43 279.96 1035.31 279.656C1036.2 279.352 1037.33 279.2 1038.69 279.2H1041.43V281.816H1039.56C1038.98 281.816 1038.56 281.912 1038.28 282.104C1038.03 282.28 1037.9 282.552 1037.9 282.92C1037.9 283.224 1038.01 283.48 1038.24 283.688C1038.48 283.88 1038.8 283.976 1039.2 283.976C1039.56 283.976 1039.9 283.88 1040.2 283.688C1040.52 283.48 1040.76 283.16 1040.9 282.728L1041.6 284.336C1041.39 285.312 1040.95 286.04 1040.28 286.52C1039.6 287 1038.7 287.24 1037.56 287.24ZM1055.96 287.24C1054.46 287.24 1053.12 286.952 1051.95 286.376C1050.78 285.8 1049.86 285 1049.19 283.976C1048.54 282.936 1048.21 281.752 1048.21 280.424C1048.21 279.096 1048.54 277.92 1049.19 276.896C1049.86 275.872 1050.78 275.072 1051.95 274.496C1053.12 273.92 1054.46 273.632 1055.96 273.632C1057.56 273.632 1058.93 273.976 1060.06 274.664C1061.2 275.352 1061.98 276.304 1062.42 277.52L1058.22 279.584C1057.94 278.976 1057.61 278.536 1057.21 278.264C1056.82 277.992 1056.4 277.856 1055.94 277.856C1055.54 277.856 1055.16 277.952 1054.81 278.144C1054.47 278.336 1054.2 278.624 1053.99 279.008C1053.8 279.376 1053.7 279.848 1053.7 280.424C1053.7 281 1053.8 281.48 1053.99 281.864C1054.2 282.248 1054.47 282.536 1054.81 282.728C1055.16 282.92 1055.54 283.016 1055.94 283.016C1056.4 283.016 1056.82 282.88 1057.21 282.608C1057.61 282.336 1057.94 281.896 1058.22 281.288L1062.42 283.352C1061.98 284.568 1061.2 285.52 1060.06 286.208C1058.93 286.896 1057.56 287.24 1055.96 287.24ZM1070.24 287.24C1068.43 287.24 1067.02 286.808 1066.02 285.944C1065.01 285.064 1064.5 283.72 1064.5 281.912V270.92H1069.93V281.864C1069.93 282.264 1070.03 282.576 1070.24 282.8C1070.46 283.024 1070.74 283.136 1071.06 283.136C1071.52 283.136 1071.93 283.016 1072.28 282.776L1073.58 286.544C1073.16 286.784 1072.66 286.96 1072.06 287.072C1071.49 287.184 1070.88 287.24 1070.24 287.24ZM1062.7 278.552V274.592H1072.62V278.552H1062.7Z" fill="white"/>
<path d="M1105.5 268.5V287.5" stroke="white"/>
<rect x="1137.25" y="258.75" width="37.5" height="37.5" rx="18.75" fill="#E6CFFF" stroke="#E6CFFF" stroke-width="1.5"/>
<path fill-rule="evenodd" clip-rule="evenodd" d="M1154.05 285V277.499H1152.5V274.915H1154.05V273.363C1154.05 271.254 1154.93 270 1157.41 270H1159.49V272.585H1158.19C1157.22 272.585 1157.16 272.946 1157.16 273.621L1157.15 274.914H1159.5L1159.23 277.499H1157.15V285H1154.05Z" fill="#0A142F"/>
<rect x="1190.25" y="259.25" width="37.5" height="37.5" rx="18.75" fill="#E6CFFF" stroke="#E6CFFF" stroke-width="1.5"/>
<path d="M1209.5 269.807C1212.15 269.807 1212.51 269.807 1213.6 269.807C1214.56 269.807 1215.04 270.048 1215.4 270.169C1215.89 270.41 1216.25 270.53 1216.61 270.892C1216.97 271.253 1217.21 271.614 1217.33 272.096C1217.45 272.458 1217.57 272.94 1217.69 273.904C1217.69 274.988 1217.69 275.229 1217.69 278C1217.69 280.771 1217.69 281.012 1217.69 282.096C1217.69 283.06 1217.45 283.542 1217.33 283.904C1217.09 284.386 1216.97 284.747 1216.61 285.108C1216.25 285.47 1215.89 285.711 1215.4 285.831C1215.04 285.952 1214.56 286.072 1213.6 286.193C1212.51 286.193 1212.27 286.193 1209.5 286.193C1206.73 286.193 1206.49 286.193 1205.4 286.193C1204.44 286.193 1203.96 285.952 1203.6 285.831C1203.11 285.59 1202.75 285.47 1202.39 285.108C1202.03 284.747 1201.79 284.386 1201.67 283.904C1201.55 283.542 1201.43 283.06 1201.31 282.096C1201.31 281.012 1201.31 280.771 1201.31 278C1201.31 275.229 1201.31 274.988 1201.31 273.904C1201.31 272.94 1201.55 272.458 1201.67 272.096C1201.91 271.614 1202.03 271.253 1202.39 270.892C1202.75 270.53 1203.11 270.289 1203.6 270.169C1203.96 270.048 1204.44 269.928 1205.4 269.807C1206.49 269.807 1206.85 269.807 1209.5 269.807ZM1209.5 268C1206.73 268 1206.49 268 1205.4 268C1204.32 268 1203.6 268.241 1202.99 268.482C1202.39 268.723 1201.79 269.084 1201.19 269.687C1200.58 270.289 1200.34 270.771 1199.98 271.494C1199.74 272.096 1199.62 272.819 1199.5 273.904C1199.5 274.988 1199.5 275.349 1199.5 278C1199.5 280.771 1199.5 281.012 1199.5 282.096C1199.5 283.181 1199.74 283.904 1199.98 284.506C1200.22 285.108 1200.58 285.711 1201.19 286.313C1201.79 286.916 1202.27 287.157 1202.99 287.518C1203.6 287.759 1204.32 287.88 1205.4 288C1206.49 288 1206.85 288 1209.5 288C1212.15 288 1212.51 288 1213.6 288C1214.68 288 1215.4 287.759 1216.01 287.518C1216.61 287.277 1217.21 286.916 1217.81 286.313C1218.42 285.711 1218.66 285.229 1219.02 284.506C1219.26 283.904 1219.38 283.181 1219.5 282.096C1219.5 281.012 1219.5 280.651 1219.5 278C1219.5 275.349 1219.5 274.988 1219.5 273.904C1219.5 272.819 1219.26 272.096 1219.02 271.494C1218.78 270.892 1218.42 270.289 1217.81 269.687C1217.21 269.084 1216.73 268.843 1216.01 268.482C1215.4 268.241 1214.68 268.12 1213.6 268C1212.51 268 1212.27 268 1209.5 268Z" fill="black"/>
<path d="M1209.5 272.819C1206.61 272.819 1204.32 275.108 1204.32 278C1204.32 280.892 1206.61 283.181 1209.5 283.181C1212.39 283.181 1214.68 280.892 1214.68 278C1214.68 275.108 1212.39 272.819 1209.5 272.819ZM1209.5 281.373C1207.69 281.373 1206.13 279.928 1206.13 278C1206.13 276.193 1207.57 274.627 1209.5 274.627C1211.31 274.627 1212.87 276.072 1212.87 278C1212.87 279.807 1211.31 281.373 1209.5 281.373Z" fill="black"/>
<path d="M1214.8 273.904C1215.47 273.904 1216.01 273.364 1216.01 272.699C1216.01 272.033 1215.47 271.494 1214.8 271.494C1214.14 271.494 1213.6 272.033 1213.6 272.699C1213.6 273.364 1214.14 273.904 1214.8 273.904Z" fill="black"/>
<rect x="1244.25" y="258.75" width="37.5" height="37.5" rx="18.75" fill="#E6CFFF" stroke="#E6CFFF" stroke-width="1.5"/>
<path fill-rule="evenodd" clip-rule="evenodd" d="M1272.84 271.159C1273.18 271.511 1273.42 271.945 1273.54 272.42C1273.86 274.179 1274.01 275.963 1274 277.75C1274.01 279.51 1273.85 281.268 1273.54 283C1273.42 283.475 1273.18 283.909 1272.84 284.261C1272.5 284.612 1272.07 284.867 1271.6 285C1269.88 285.46 1263 285.46 1263 285.46C1263 285.46 1256.12 285.46 1254.4 285C1253.94 284.874 1253.52 284.631 1253.18 284.294C1252.84 283.958 1252.59 283.54 1252.46 283.08C1252.14 281.321 1251.99 279.537 1252 277.75C1251.99 275.976 1252.15 274.206 1252.46 272.46C1252.58 271.985 1252.82 271.551 1253.16 271.199C1253.5 270.848 1253.93 270.593 1254.4 270.46C1256.12 270 1263 270 1263 270C1263 270 1269.88 270 1271.6 270.42C1272.07 270.553 1272.5 270.808 1272.84 271.159ZM1266.5 277.75L1260.75 281.02V274.48L1266.5 277.75Z" fill="black"/>
<rect x="1297.25" y="258.75" width="37.5" height="37.5" rx="18.75" fill="#E6CFFF" stroke="#E6CFFF" stroke-width="1.5"/>
<path fill-rule="evenodd" clip-rule="evenodd" d="M1315.81 274.926L1315.84 275.402L1315.37 275.344C1313.66 275.12 1312.17 274.363 1310.9 273.091L1310.28 272.46L1310.12 272.926C1309.78 273.965 1310 275.062 1310.7 275.8C1311.08 276.208 1310.99 276.266 1310.35 276.023C1310.12 275.946 1309.92 275.887 1309.9 275.917C1309.84 275.985 1310.06 276.868 1310.24 277.218C1310.49 277.703 1310.98 278.179 1311.53 278.461L1311.99 278.684L1311.44 278.694C1310.92 278.694 1310.9 278.703 1310.96 278.907C1311.14 279.538 1311.89 280.208 1312.71 280.5L1313.29 280.704L1312.79 281.014C1312.04 281.461 1311.15 281.713 1310.27 281.733C1309.85 281.742 1309.5 281.781 1309.5 281.81C1309.5 281.908 1310.65 282.451 1311.31 282.665C1313.31 283.296 1315.69 283.024 1317.47 281.946C1318.74 281.179 1320.01 279.655 1320.6 278.179C1320.92 277.392 1321.24 275.955 1321.24 275.266C1321.24 274.819 1321.27 274.761 1321.8 274.227C1322.11 273.916 1322.4 273.577 1322.45 273.479C1322.55 273.295 1322.54 273.295 1322.06 273.46C1321.26 273.751 1321.15 273.712 1321.54 273.276C1321.83 272.965 1322.18 272.402 1322.18 272.237C1322.18 272.207 1322.04 272.256 1321.88 272.343C1321.71 272.44 1321.34 272.586 1321.05 272.673L1320.55 272.839L1320.09 272.518C1319.83 272.343 1319.48 272.149 1319.29 272.091C1318.81 271.955 1318.08 271.974 1317.64 272.13C1316.47 272.567 1315.73 273.693 1315.81 274.926Z" fill="#0A142F"/>
<rect x="423.5" y="511" width="1074" height="8" fill="#E6CFFF"/>
<rect x="423.5" y="557" width="117" height="70" fill="#7E52AE"/>
<rect x="423.5" y="557" width="117" height="70" stroke="black"/>
<g filter="url(#filter0_d_71_372)">
<path d="M483.788 585.976C475.704 585.338 474.209 592.529 467.005 598.415C456.686 607.17 459.038 615.715 465.927 618.081C483.401 618.887 477.178 607.858 484.374 608.398C491.569 608.938 483.645 622.809 504.758 621.432C511.288 620.292 512.843 612.008 501.659 601.39C493.934 594.197 491.791 586.858 483.788 585.976Z" fill="#FF8B94"/>
<path d="M484.585 597.671C482.521 598.131 480.477 596.841 480.02 594.789C479.087 586.463 481.836 593.55 483.901 593.09C486.174 593.074 487.705 587.354 487.497 593.124C487.392 596.035 486.65 597.211 484.585 597.671Z" fill="#FFD3B6"/>
<path d="M478.18 569.56C480.559 574.002 479.431 579.23 475.66 581.236C471.888 583.243 466.902 581.268 464.523 576.826C463.402 574.733 462.261 563.251 462.606 561.229C463.373 560.332 465.797 561.801 469.209 563.815C474.074 566.961 475.8 565.117 478.18 569.56Z" fill="#FF8B94"/>
<path d="M486.077 569.347C484.561 574.16 486.631 579.086 490.701 580.35C494.771 581.614 499.299 578.736 500.815 573.923C501.529 571.656 500.533 560.156 499.821 558.233C498.904 557.495 496.796 559.395 493.82 562.015C489.626 566.022 487.592 564.534 486.077 569.347Z" fill="#FF8B94"/>
<ellipse cx="6.73914" cy="7.99273" rx="6.73914" ry="7.99273" transform="matrix(0.740158 0.670908 -0.675718 0.738554 506.811 575.681)" fill="#FF8B94"/>
<ellipse cx="6.75251" cy="7.97989" rx="6.75251" ry="7.97989" transform="matrix(0.91012 -0.416926 0.418005 0.90726 448.287 582.584)" fill="#FF8B94"/>
</g>
<path d="M847.676 598.054C846.776 598.054 845.942 597.892 845.174 597.568C844.406 597.244 843.734 596.794 843.158 596.218C842.582 595.63 842.132 594.952 841.808 594.184C841.496 593.416 841.34 592.588 841.34 591.7C841.34 590.812 841.502 589.984 841.826 589.216C842.15 588.448 842.6 587.776 843.176 587.2C843.752 586.612 844.424 586.156 845.192 585.832C845.972 585.508 846.812 585.346 847.712 585.346C848.612 585.346 849.446 585.508 850.214 585.832C850.994 586.144 851.666 586.588 852.23 587.164C852.806 587.74 853.25 588.412 853.562 589.18C853.886 589.936 854.048 590.764 854.048 591.664C854.048 592.564 853.886 593.404 853.562 594.184C853.238 594.952 852.782 595.63 852.194 596.218C851.618 596.794 850.946 597.244 850.178 597.568C849.41 597.892 848.576 598.054 847.676 598.054ZM847.676 596.884C848.408 596.884 849.086 596.752 849.71 596.488C850.334 596.212 850.88 595.84 851.348 595.372C851.816 594.904 852.176 594.352 852.428 593.716C852.692 593.08 852.824 592.396 852.824 591.664C852.824 590.932 852.692 590.254 852.428 589.63C852.176 588.994 851.822 588.448 851.366 587.992C850.922 587.524 850.388 587.164 849.764 586.912C849.14 586.648 848.456 586.516 847.712 586.516C846.98 586.516 846.296 586.648 845.66 586.912C845.036 587.176 844.49 587.548 844.022 588.028C843.566 588.496 843.212 589.042 842.96 589.666C842.708 590.29 842.582 590.968 842.582 591.7C842.582 592.432 842.708 593.116 842.96 593.752C843.212 594.376 843.566 594.922 844.022 595.39C844.478 595.858 845.018 596.224 845.642 596.488C846.266 596.752 846.944 596.884 847.676 596.884ZM847.91 595.336C847.166 595.336 846.506 595.186 845.93 594.886C845.354 594.574 844.898 594.142 844.562 593.59C844.238 593.038 844.076 592.408 844.076 591.7C844.076 590.992 844.238 590.362 844.562 589.81C844.898 589.258 845.354 588.832 845.93 588.532C846.506 588.22 847.166 588.064 847.91 588.064C848.63 588.064 849.26 588.22 849.8 588.532C850.34 588.832 850.736 589.246 850.988 589.774L849.368 590.728C849.188 590.428 848.972 590.212 848.72 590.08C848.48 589.948 848.204 589.882 847.892 589.882C847.58 589.882 847.292 589.954 847.028 590.098C846.776 590.242 846.572 590.452 846.416 590.728C846.26 591.004 846.182 591.328 846.182 591.7C846.182 592.072 846.26 592.396 846.416 592.672C846.572 592.948 846.776 593.158 847.028 593.302C847.292 593.446 847.58 593.518 847.892 593.518C848.204 593.518 848.48 593.452 848.72 593.32C848.972 593.188 849.188 592.972 849.368 592.672L850.988 593.608C850.736 594.136 850.34 594.556 849.8 594.868C849.26 595.18 848.63 595.336 847.91 595.336ZM860.462 598V596.11L865.322 591.52C865.706 591.172 865.988 590.86 866.168 590.584C866.348 590.308 866.468 590.056 866.528 589.828C866.6 589.6 866.636 589.39 866.636 589.198C866.636 588.694 866.462 588.31 866.114 588.046C865.778 587.77 865.28 587.632 864.62 587.632C864.092 587.632 863.6 587.734 863.144 587.938C862.7 588.142 862.322 588.46 862.01 588.892L859.886 587.524C860.366 586.804 861.038 586.234 861.902 585.814C862.766 585.394 863.762 585.184 864.89 585.184C865.826 585.184 866.642 585.34 867.338 585.652C868.046 585.952 868.592 586.378 868.976 586.93C869.372 587.482 869.57 588.142 869.57 588.91C869.57 589.318 869.516 589.726 869.408 590.134C869.312 590.53 869.108 590.95 868.796 591.394C868.496 591.838 868.052 592.336 867.464 592.888L863.432 596.686L862.874 595.624H869.984V598H860.462ZM876.587 598.216C875.555 598.216 874.631 597.964 873.815 597.46C872.999 596.944 872.357 596.2 871.889 595.228C871.421 594.256 871.187 593.08 871.187 591.7C871.187 590.32 871.421 589.144 871.889 588.172C872.357 587.2 872.999 586.462 873.815 585.958C874.631 585.442 875.555 585.184 876.587 585.184C877.631 585.184 878.555 585.442 879.359 585.958C880.175 586.462 880.817 587.2 881.285 588.172C881.753 589.144 881.987 590.32 881.987 591.7C881.987 593.08 881.753 594.256 881.285 595.228C880.817 596.2 880.175 596.944 879.359 597.46C878.555 597.964 877.631 598.216 876.587 598.216ZM876.587 595.75C877.079 595.75 877.505 595.612 877.865 595.336C878.237 595.06 878.525 594.622 878.729 594.022C878.945 593.422 879.053 592.648 879.053 591.7C879.053 590.752 878.945 589.978 878.729 589.378C878.525 588.778 878.237 588.34 877.865 588.064C877.505 587.788 877.079 587.65 876.587 587.65C876.107 587.65 875.681 587.788 875.309 588.064C874.949 588.34 874.661 588.778 874.445 589.378C874.241 589.978 874.139 590.752 874.139 591.7C874.139 592.648 874.241 593.422 874.445 594.022C874.661 594.622 874.949 595.06 875.309 595.336C875.681 595.612 876.107 595.75 876.587 595.75ZM883.226 598V596.11L888.086 591.52C888.47 591.172 888.752 590.86 888.932 590.584C889.112 590.308 889.232 590.056 889.292 589.828C889.364 589.6 889.4 589.39 889.4 589.198C889.4 588.694 889.226 588.31 888.878 588.046C888.542 587.77 888.044 587.632 887.384 587.632C886.856 587.632 886.364 587.734 885.908 587.938C885.464 588.142 885.086 588.46 884.774 588.892L882.65 587.524C883.13 586.804 883.802 586.234 884.666 585.814C885.53 585.394 886.526 585.184 887.654 585.184C888.59 585.184 889.406 585.34 890.102 585.652C890.81 585.952 891.356 586.378 891.74 586.93C892.136 587.482 892.334 588.142 892.334 588.91C892.334 589.318 892.28 589.726 892.172 590.134C892.076 590.53 891.872 590.95 891.56 591.394C891.26 591.838 890.816 592.336 890.228 592.888L886.196 596.686L885.638 595.624H892.748V598H883.226ZM893.614 595.354V593.392L899.554 585.4H902.614L896.8 593.392L895.378 592.978H905.296V595.354H893.614ZM900.4 598V595.354L900.49 592.978V590.62H903.244V598H900.4ZM912.057 598V585.4H914.469L919.833 594.292H918.555L923.829 585.4H926.223L926.259 598H923.523L923.505 589.594H924.009L919.797 596.668H918.483L914.181 589.594H914.793V598H912.057ZM929.051 598V588.316H931.859V598H929.051ZM930.455 586.966C929.939 586.966 929.519 586.816 929.195 586.516C928.871 586.216 928.709 585.844 928.709 585.4C928.709 584.956 928.871 584.584 929.195 584.284C929.519 583.984 929.939 583.834 930.455 583.834C930.971 583.834 931.391 583.978 931.715 584.266C932.039 584.542 932.201 584.902 932.201 585.346C932.201 585.814 932.039 586.204 931.715 586.516C931.403 586.816 930.983 586.966 930.455 586.966ZM940.405 598V596.11L940.225 595.696V592.312C940.225 591.712 940.039 591.244 939.667 590.908C939.307 590.572 938.749 590.404 937.993 590.404C937.477 590.404 936.967 590.488 936.463 590.656C935.971 590.812 935.551 591.028 935.203 591.304L934.195 589.342C934.723 588.97 935.359 588.682 936.103 588.478C936.847 588.274 937.603 588.172 938.371 588.172C939.847 588.172 940.993 588.52 941.809 589.216C942.625 589.912 943.033 590.998 943.033 592.474V598H940.405ZM937.453 598.144C936.697 598.144 936.049 598.018 935.509 597.766C934.969 597.502 934.555 597.148 934.267 596.704C933.979 596.26 933.835 595.762 933.835 595.21C933.835 594.634 933.973 594.13 934.249 593.698C934.537 593.266 934.987 592.93 935.599 592.69C936.211 592.438 937.009 592.312 937.993 592.312H940.567V593.95H938.299C937.639 593.95 937.183 594.058 936.931 594.274C936.691 594.49 936.571 594.76 936.571 595.084C936.571 595.444 936.709 595.732 936.985 595.948C937.273 596.152 937.663 596.254 938.155 596.254C938.623 596.254 939.043 596.146 939.415 595.93C939.787 595.702 940.057 595.372 940.225 594.94L940.657 596.236C940.453 596.86 940.081 597.334 939.541 597.658C939.001 597.982 938.305 598.144 937.453 598.144ZM950.253 598.144C949.221 598.144 948.303 597.928 947.499 597.496C946.707 597.064 946.077 596.476 945.609 595.732C945.153 594.976 944.925 594.118 944.925 593.158C944.925 592.186 945.153 591.328 945.609 590.584C946.077 589.828 946.707 589.24 947.499 588.82C948.303 588.388 949.221 588.172 950.253 588.172C951.273 588.172 952.185 588.388 952.989 588.82C953.793 589.24 954.423 589.822 954.879 590.566C955.335 591.31 955.563 592.174 955.563 593.158C955.563 594.118 955.335 594.976 954.879 595.732C954.423 596.476 953.793 597.064 952.989 597.496C952.185 597.928 951.273 598.144 950.253 598.144ZM950.253 595.84C950.721 595.84 951.141 595.732 951.513 595.516C951.885 595.3 952.179 594.994 952.395 594.598C952.611 594.19 952.719 593.71 952.719 593.158C952.719 592.594 952.611 592.114 952.395 591.718C952.179 591.322 951.885 591.016 951.513 590.8C951.141 590.584 950.721 590.476 950.253 590.476C949.785 590.476 949.365 590.584 948.993 590.8C948.621 591.016 948.321 591.322 948.093 591.718C947.877 592.114 947.769 592.594 947.769 593.158C947.769 593.71 947.877 594.19 948.093 594.598C948.321 594.994 948.621 595.3 948.993 595.516C949.365 595.732 949.785 595.84 950.253 595.84ZM961.526 598.144C960.722 598.144 960.002 597.988 959.366 597.676C958.742 597.364 958.256 596.89 957.908 596.254C957.56 595.606 957.386 594.784 957.386 593.788V588.316H960.194V593.374C960.194 594.178 960.362 594.772 960.698 595.156C961.046 595.528 961.532 595.714 962.156 595.714C962.588 595.714 962.972 595.624 963.308 595.444C963.644 595.252 963.908 594.964 964.1 594.58C964.292 594.184 964.388 593.692 964.388 593.104V588.316H967.196V598H964.532V595.336L965.018 596.11C964.694 596.782 964.214 597.292 963.578 597.64C962.954 597.976 962.27 598.144 961.526 598.144ZM975.093 598V585.4H977.505L982.869 594.292H981.591L986.865 585.4H989.259L989.295 598H986.559L986.541 589.594H987.045L982.833 596.668H981.519L977.217 589.594H977.829V598H975.093ZM998.026 598V596.11L997.846 595.696V592.312C997.846 591.712 997.66 591.244 997.288 590.908C996.928 590.572 996.37 590.404 995.614 590.404C995.098 590.404 994.588 590.488 994.084 590.656C993.592 590.812 993.172 591.028 992.824 591.304L991.816 589.342C992.344 588.97 992.98 588.682 993.724 588.478C994.468 588.274 995.224 588.172 995.992 588.172C997.468 588.172 998.614 588.52 999.43 589.216C1000.25 589.912 1000.65 590.998 1000.65 592.474V598H998.026ZM995.074 598.144C994.318 598.144 993.67 598.018 993.13 597.766C992.59 597.502 992.176 597.148 991.888 596.704C991.6 596.26 991.456 595.762 991.456 595.21C991.456 594.634 991.594 594.13 991.87 593.698C992.158 593.266 992.608 592.93 993.22 592.69C993.832 592.438 994.63 592.312 995.614 592.312H998.188V593.95H995.92C995.26 593.95 994.804 594.058 994.552 594.274C994.312 594.49 994.192 594.76 994.192 595.084C994.192 595.444 994.33 595.732 994.606 595.948C994.894 596.152 995.284 596.254 995.776 596.254C996.244 596.254 996.664 596.146 997.036 595.93C997.408 595.702 997.678 595.372 997.846 594.94L998.278 596.236C998.074 596.86 997.702 597.334 997.162 597.658C996.622 597.982 995.926 598.144 995.074 598.144ZM1003.2 598V588.316H1006V598H1003.2ZM1004.6 586.966C1004.08 586.966 1003.66 586.816 1003.34 586.516C1003.02 586.216 1002.85 585.844 1002.85 585.4C1002.85 584.956 1003.02 584.584 1003.34 584.284C1003.66 583.984 1004.08 583.834 1004.6 583.834C1005.12 583.834 1005.54 583.978 1005.86 584.266C1006.18 584.542 1006.35 584.902 1006.35 585.346C1006.35 585.814 1006.18 586.204 1005.86 586.516C1005.55 586.816 1005.13 586.966 1004.6 586.966ZM1011.87 598.144C1011.04 598.144 1010.24 598.048 1009.47 597.856C1008.72 597.652 1008.12 597.4 1007.67 597.1L1008.61 595.084C1009.05 595.36 1009.58 595.588 1010.18 595.768C1010.79 595.936 1011.39 596.02 1011.98 596.02C1012.62 596.02 1013.08 595.942 1013.34 595.786C1013.62 595.63 1013.76 595.414 1013.76 595.138C1013.76 594.91 1013.65 594.742 1013.43 594.634C1013.23 594.514 1012.95 594.424 1012.61 594.364C1012.26 594.304 1011.87 594.244 1011.45 594.184C1011.05 594.124 1010.63 594.046 1010.21 593.95C1009.79 593.842 1009.41 593.686 1009.06 593.482C1008.71 593.278 1008.43 593.002 1008.21 592.654C1008.01 592.306 1007.91 591.856 1007.91 591.304C1007.91 590.692 1008.08 590.152 1008.43 589.684C1008.79 589.216 1009.31 588.85 1009.98 588.586C1010.65 588.31 1011.45 588.172 1012.39 588.172C1013.05 588.172 1013.72 588.244 1014.41 588.388C1015.09 588.532 1015.66 588.742 1016.12 589.018L1015.18 591.016C1014.71 590.74 1014.24 590.554 1013.76 590.458C1013.29 590.35 1012.83 590.296 1012.39 590.296C1011.77 590.296 1011.31 590.38 1011.02 590.548C1010.73 590.716 1010.59 590.932 1010.59 591.196C1010.59 591.436 1010.69 591.616 1010.9 591.736C1011.11 591.856 1011.39 591.952 1011.74 592.024C1012.09 592.096 1012.47 592.162 1012.88 592.222C1013.3 592.27 1013.72 592.348 1014.14 592.456C1014.56 592.564 1014.93 592.72 1015.27 592.924C1015.62 593.116 1015.9 593.386 1016.12 593.734C1016.33 594.07 1016.44 594.514 1016.44 595.066C1016.44 595.666 1016.26 596.2 1015.9 596.668C1015.54 597.124 1015.02 597.484 1014.33 597.748C1013.66 598.012 1012.84 598.144 1011.87 598.144ZM1022.78 598.144C1021.75 598.144 1020.83 597.928 1020.03 597.496C1019.23 597.064 1018.6 596.476 1018.14 595.732C1017.68 594.976 1017.45 594.118 1017.45 593.158C1017.45 592.186 1017.68 591.328 1018.14 590.584C1018.6 589.828 1019.23 589.24 1020.03 588.82C1020.83 588.388 1021.75 588.172 1022.78 588.172C1023.8 588.172 1024.71 588.388 1025.52 588.82C1026.32 589.24 1026.95 589.822 1027.41 590.566C1027.86 591.31 1028.09 592.174 1028.09 593.158C1028.09 594.118 1027.86 594.976 1027.41 595.732C1026.95 596.476 1026.32 597.064 1025.52 597.496C1024.71 597.928 1023.8 598.144 1022.78 598.144ZM1022.78 595.84C1023.25 595.84 1023.67 595.732 1024.04 595.516C1024.41 595.3 1024.71 594.994 1024.92 594.598C1025.14 594.19 1025.25 593.71 1025.25 593.158C1025.25 592.594 1025.14 592.114 1024.92 591.718C1024.71 591.322 1024.41 591.016 1024.04 590.8C1023.67 590.584 1023.25 590.476 1022.78 590.476C1022.31 590.476 1021.89 590.584 1021.52 590.8C1021.15 591.016 1020.85 591.322 1020.62 591.718C1020.4 592.114 1020.3 592.594 1020.3 593.158C1020.3 593.71 1020.4 594.19 1020.62 594.598C1020.85 594.994 1021.15 595.3 1021.52 595.516C1021.89 595.732 1022.31 595.84 1022.78 595.84ZM1035.85 588.172C1036.62 588.172 1037.3 588.328 1037.9 588.64C1038.52 588.94 1039 589.408 1039.34 590.044C1039.69 590.668 1039.87 591.472 1039.87 592.456V598H1037.06V592.888C1037.06 592.108 1036.88 591.532 1036.54 591.16C1036.2 590.788 1035.72 590.602 1035.1 590.602C1034.65 590.602 1034.25 590.698 1033.89 590.89C1033.54 591.07 1033.27 591.352 1033.06 591.736C1032.87 592.12 1032.77 592.612 1032.77 593.212V598H1029.97V588.316H1032.65V590.998L1032.14 590.188C1032.49 589.54 1032.99 589.042 1033.64 588.694C1034.29 588.346 1035.02 588.172 1035.85 588.172ZM1043.47 598.144C1042.99 598.144 1042.58 597.982 1042.23 597.658C1041.9 597.322 1041.73 596.896 1041.73 596.38C1041.73 595.864 1041.9 595.45 1042.23 595.138C1042.58 594.814 1042.99 594.652 1043.47 594.652C1043.97 594.652 1044.38 594.814 1044.72 595.138C1045.05 595.45 1045.22 595.864 1045.22 596.38C1045.22 596.896 1045.05 597.322 1044.72 597.658C1044.38 597.982 1043.97 598.144 1043.47 598.144ZM1050.76 598L1056.38 585.4H1059.26L1064.89 598H1061.83L1057.22 586.876H1058.38L1053.75 598H1050.76ZM1053.57 595.3L1054.34 593.086H1060.82L1061.62 595.3H1053.57ZM1066 598V584.644H1068.81V598H1066ZM1071.42 598V584.644H1074.22V598H1071.42ZM1082.13 598V585.4H1087.58C1088.71 585.4 1089.68 585.586 1090.5 585.958C1091.31 586.318 1091.94 586.84 1092.39 587.524C1092.83 588.208 1093.05 589.024 1093.05 589.972C1093.05 590.908 1092.83 591.718 1092.39 592.402C1091.94 593.074 1091.31 593.59 1090.5 593.95C1089.68 594.31 1088.71 594.49 1087.58 594.49H1083.75L1085.04 593.212V598H1082.13ZM1090.14 598L1086.99 593.428H1090.1L1093.29 598H1090.14ZM1085.04 593.536L1083.75 592.168H1087.42C1088.32 592.168 1088.99 591.976 1089.43 591.592C1089.88 591.196 1090.1 590.656 1090.1 589.972C1090.1 589.276 1089.88 588.736 1089.43 588.352C1088.99 587.968 1088.32 587.776 1087.42 587.776H1083.75L1085.04 586.39V593.536ZM1095.16 598V588.316H1097.97V598H1095.16ZM1096.57 586.966C1096.05 586.966 1095.63 586.816 1095.31 586.516C1094.98 586.216 1094.82 585.844 1094.82 585.4C1094.82 584.956 1094.98 584.584 1095.31 584.284C1095.63 583.984 1096.05 583.834 1096.57 583.834C1097.08 583.834 1097.5 583.978 1097.83 584.266C1098.15 584.542 1098.31 584.902 1098.31 585.346C1098.31 585.814 1098.15 586.204 1097.83 586.516C1097.52 586.816 1097.1 586.966 1096.57 586.966ZM1105.13 601.636C1104.22 601.636 1103.34 601.522 1102.49 601.294C1101.65 601.078 1100.94 600.748 1100.38 600.304L1101.5 598.288C1101.9 598.624 1102.42 598.888 1103.04 599.08C1103.68 599.284 1104.3 599.386 1104.92 599.386C1105.91 599.386 1106.63 599.164 1107.08 598.72C1107.53 598.276 1107.76 597.616 1107.76 596.74V595.282L1107.94 592.852L1107.9 590.404V588.316H1110.57V596.38C1110.57 598.18 1110.1 599.506 1109.16 600.358C1108.23 601.21 1106.88 601.636 1105.13 601.636ZM1104.7 597.532C1103.8 597.532 1102.98 597.34 1102.25 596.956C1101.53 596.56 1100.95 596.014 1100.51 595.318C1100.07 594.61 1099.86 593.788 1099.86 592.852C1099.86 591.904 1100.07 591.082 1100.51 590.386C1100.95 589.678 1101.53 589.132 1102.25 588.748C1102.98 588.364 1103.8 588.172 1104.7 588.172C1105.52 588.172 1106.24 588.34 1106.86 588.676C1107.48 589 1107.97 589.51 1108.32 590.206C1108.67 590.89 1108.84 591.772 1108.84 592.852C1108.84 593.92 1108.67 594.802 1108.32 595.498C1107.97 596.182 1107.48 596.692 1106.86 597.028C1106.24 597.364 1105.52 597.532 1104.7 597.532ZM1105.26 595.228C1105.75 595.228 1106.19 595.132 1106.57 594.94C1106.96 594.736 1107.26 594.454 1107.47 594.094C1107.69 593.734 1107.8 593.32 1107.8 592.852C1107.8 592.372 1107.69 591.958 1107.47 591.61C1107.26 591.25 1106.96 590.974 1106.57 590.782C1106.19 590.578 1105.75 590.476 1105.26 590.476C1104.77 590.476 1104.33 590.578 1103.94 590.782C1103.56 590.974 1103.25 591.25 1103.03 591.61C1102.81 591.958 1102.7 592.372 1102.7 592.852C1102.7 593.32 1102.81 593.734 1103.03 594.094C1103.25 594.454 1103.56 594.736 1103.94 594.94C1104.33 595.132 1104.77 595.228 1105.26 595.228ZM1119.07 588.172C1119.84 588.172 1120.52 588.328 1121.12 588.64C1121.73 588.94 1122.21 589.408 1122.56 590.044C1122.91 590.668 1123.08 591.472 1123.08 592.456V598H1120.27V592.888C1120.27 592.108 1120.1 591.532 1119.75 591.16C1119.42 590.788 1118.94 590.602 1118.31 590.602C1117.87 590.602 1117.47 590.698 1117.11 590.89C1116.76 591.07 1116.48 591.352 1116.28 591.736C1116.09 592.12 1115.99 592.612 1115.99 593.212V598H1113.18V584.644H1115.99V590.998L1115.36 590.188C1115.71 589.54 1116.21 589.042 1116.85 588.694C1117.5 588.346 1118.24 588.172 1119.07 588.172ZM1129.59 598.144C1128.45 598.144 1127.56 597.856 1126.92 597.28C1126.29 596.692 1125.97 595.822 1125.97 594.67V586.174H1128.78V594.634C1128.78 595.042 1128.89 595.36 1129.1 595.588C1129.32 595.804 1129.61 595.912 1129.98 595.912C1130.43 595.912 1130.81 595.792 1131.12 595.552L1131.87 597.532C1131.59 597.736 1131.24 597.892 1130.83 598C1130.43 598.096 1130.02 598.144 1129.59 598.144ZM1124.48 590.692V588.532H1131.19V590.692H1124.48ZM1136.71 598.144C1135.88 598.144 1135.08 598.048 1134.31 597.856C1133.56 597.652 1132.96 597.4 1132.51 597.1L1133.45 595.084C1133.89 595.36 1134.42 595.588 1135.02 595.768C1135.63 595.936 1136.23 596.02 1136.82 596.02C1137.46 596.02 1137.92 595.942 1138.18 595.786C1138.46 595.63 1138.6 595.414 1138.6 595.138C1138.6 594.91 1138.49 594.742 1138.27 594.634C1138.07 594.514 1137.79 594.424 1137.45 594.364C1137.1 594.304 1136.71 594.244 1136.29 594.184C1135.89 594.124 1135.47 594.046 1135.05 593.95C1134.63 593.842 1134.25 593.686 1133.9 593.482C1133.55 593.278 1133.27 593.002 1133.05 592.654C1132.85 592.306 1132.75 591.856 1132.75 591.304C1132.75 590.692 1132.92 590.152 1133.27 589.684C1133.63 589.216 1134.15 588.85 1134.82 588.586C1135.49 588.31 1136.29 588.172 1137.23 588.172C1137.89 588.172 1138.56 588.244 1139.25 588.388C1139.93 588.532 1140.5 588.742 1140.96 589.018L1140.02 591.016C1139.55 590.74 1139.08 590.554 1138.6 590.458C1138.13 590.35 1137.67 590.296 1137.23 590.296C1136.61 590.296 1136.15 590.38 1135.86 590.548C1135.57 590.716 1135.43 590.932 1135.43 591.196C1135.43 591.436 1135.53 591.616 1135.74 591.736C1135.95 591.856 1136.23 591.952 1136.58 592.024C1136.93 592.096 1137.31 592.162 1137.72 592.222C1138.14 592.27 1138.56 592.348 1138.98 592.456C1139.4 592.564 1139.77 592.72 1140.11 592.924C1140.46 593.116 1140.74 593.386 1140.96 593.734C1141.17 594.07 1141.28 594.514 1141.28 595.066C1141.28 595.666 1141.1 596.2 1140.74 596.668C1140.38 597.124 1139.86 597.484 1139.17 597.748C1138.5 598.012 1137.68 598.144 1136.71 598.144ZM1148.31 598V585.4H1153.76C1154.89 585.4 1155.86 585.586 1156.68 585.958C1157.49 586.318 1158.12 586.84 1158.57 587.524C1159.01 588.208 1159.23 589.024 1159.23 589.972C1159.23 590.908 1159.01 591.718 1158.57 592.402C1158.12 593.074 1157.49 593.59 1156.68 593.95C1155.86 594.31 1154.89 594.49 1153.76 594.49H1149.93L1151.22 593.212V598H1148.31ZM1156.32 598L1153.17 593.428H1156.28L1159.47 598H1156.32ZM1151.22 593.536L1149.93 592.168H1153.6C1154.5 592.168 1155.17 591.976 1155.62 591.592C1156.06 591.196 1156.28 590.656 1156.28 589.972C1156.28 589.276 1156.06 588.736 1155.62 588.352C1155.17 587.968 1154.5 587.776 1153.6 587.776H1149.93L1151.22 586.39V593.536ZM1166.15 598.144C1165.05 598.144 1164.08 597.928 1163.24 597.496C1162.41 597.064 1161.77 596.476 1161.31 595.732C1160.85 594.976 1160.63 594.118 1160.63 593.158C1160.63 592.186 1160.85 591.328 1161.29 590.584C1161.75 589.828 1162.37 589.24 1163.15 588.82C1163.93 588.388 1164.81 588.172 1165.79 588.172C1166.74 588.172 1167.59 588.376 1168.35 588.784C1169.12 589.18 1169.72 589.756 1170.17 590.512C1170.61 591.256 1170.83 592.15 1170.83 593.194C1170.83 593.302 1170.83 593.428 1170.81 593.572C1170.8 593.704 1170.79 593.83 1170.78 593.95H1162.91V592.312H1169.3L1168.22 592.798C1168.22 592.294 1168.12 591.856 1167.92 591.484C1167.71 591.112 1167.43 590.824 1167.07 590.62C1166.71 590.404 1166.29 590.296 1165.81 590.296C1165.33 590.296 1164.9 590.404 1164.53 590.62C1164.17 590.824 1163.89 591.118 1163.69 591.502C1163.48 591.874 1163.38 592.318 1163.38 592.834V593.266C1163.38 593.794 1163.49 594.262 1163.72 594.67C1163.96 595.066 1164.29 595.372 1164.71 595.588C1165.14 595.792 1165.65 595.894 1166.22 595.894C1166.74 595.894 1167.19 595.816 1167.57 595.66C1167.97 595.504 1168.33 595.27 1168.65 594.958L1170.15 596.578C1169.7 597.082 1169.15 597.472 1168.47 597.748C1167.8 598.012 1167.03 598.144 1166.15 598.144ZM1175.96 598.144C1175.13 598.144 1174.33 598.048 1173.57 597.856C1172.81 597.652 1172.21 597.4 1171.77 597.1L1172.7 595.084C1173.15 595.36 1173.67 595.588 1174.27 595.768C1174.88 595.936 1175.48 596.02 1176.07 596.02C1176.72 596.02 1177.17 595.942 1177.44 595.786C1177.71 595.63 1177.85 595.414 1177.85 595.138C1177.85 594.91 1177.74 594.742 1177.53 594.634C1177.32 594.514 1177.05 594.424 1176.7 594.364C1176.35 594.304 1175.97 594.244 1175.55 594.184C1175.14 594.124 1174.72 594.046 1174.3 593.95C1173.88 593.842 1173.5 593.686 1173.15 593.482C1172.8 593.278 1172.52 593.002 1172.31 592.654C1172.1 592.306 1172 591.856 1172 591.304C1172 590.692 1172.17 590.152 1172.52 589.684C1172.88 589.216 1173.4 588.85 1174.07 588.586C1174.74 588.31 1175.55 588.172 1176.48 588.172C1177.14 588.172 1177.81 588.244 1178.5 588.388C1179.18 588.532 1179.75 588.742 1180.21 589.018L1179.27 591.016C1178.8 590.74 1178.33 590.554 1177.85 590.458C1177.38 590.35 1176.93 590.296 1176.48 590.296C1175.86 590.296 1175.4 590.38 1175.11 590.548C1174.83 590.716 1174.68 590.932 1174.68 591.196C1174.68 591.436 1174.78 591.616 1174.99 591.736C1175.2 591.856 1175.49 591.952 1175.83 592.024C1176.18 592.096 1176.56 592.162 1176.97 592.222C1177.39 592.27 1177.81 592.348 1178.23 592.456C1178.65 592.564 1179.03 592.72 1179.36 592.924C1179.71 593.116 1179.99 593.386 1180.21 593.734C1180.42 594.07 1180.53 594.514 1180.53 595.066C1180.53 595.666 1180.35 596.2 1179.99 596.668C1179.63 597.124 1179.11 597.484 1178.43 597.748C1177.75 598.012 1176.93 598.144 1175.96 598.144ZM1187.07 598.144C1185.97 598.144 1184.99 597.928 1184.15 597.496C1183.33 597.064 1182.68 596.476 1182.23 595.732C1181.77 594.976 1181.54 594.118 1181.54 593.158C1181.54 592.186 1181.77 591.328 1182.21 590.584C1182.67 589.828 1183.28 589.24 1184.06 588.82C1184.84 588.388 1185.73 588.172 1186.71 588.172C1187.66 588.172 1188.51 588.376 1189.27 588.784C1190.03 589.18 1190.64 589.756 1191.08 590.512C1191.53 591.256 1191.75 592.15 1191.75 593.194C1191.75 593.302 1191.74 593.428 1191.73 593.572C1191.72 593.704 1191.71 593.83 1191.7 593.95H1183.83V592.312H1190.22L1189.14 592.798C1189.14 592.294 1189.04 591.856 1188.83 591.484C1188.63 591.112 1188.35 590.824 1187.99 590.62C1187.63 590.404 1187.21 590.296 1186.73 590.296C1186.25 590.296 1185.82 590.404 1185.45 590.62C1185.09 590.824 1184.81 591.118 1184.6 591.502C1184.4 591.874 1184.3 592.318 1184.3 592.834V593.266C1184.3 593.794 1184.41 594.262 1184.64 594.67C1184.88 595.066 1185.21 595.372 1185.63 595.588C1186.06 595.792 1186.57 595.894 1187.14 595.894C1187.66 595.894 1188.11 595.816 1188.49 595.66C1188.89 595.504 1189.25 595.27 1189.57 594.958L1191.07 596.578C1190.62 597.082 1190.06 597.472 1189.39 597.748C1188.72 598.012 1187.95 598.144 1187.07 598.144ZM1193.62 598V588.316H1196.3V591.052L1195.92 590.26C1196.21 589.576 1196.67 589.06 1197.31 588.712C1197.95 588.352 1198.72 588.172 1199.63 588.172V590.764C1199.51 590.752 1199.4 590.746 1199.31 590.746C1199.21 590.734 1199.11 590.728 1199 590.728C1198.23 590.728 1197.61 590.95 1197.13 591.394C1196.66 591.826 1196.43 592.504 1196.43 593.428V598H1193.62ZM1204.26 598L1200.19 588.316H1203.09L1206.48 596.65H1205.04L1208.55 588.316H1211.25L1207.16 598H1204.26ZM1216.94 598.144C1215.83 598.144 1214.86 597.928 1214.02 597.496C1213.19 597.064 1212.55 596.476 1212.09 595.732C1211.64 594.976 1211.41 594.118 1211.41 593.158C1211.41 592.186 1211.63 591.328 1212.08 590.584C1212.53 589.828 1213.15 589.24 1213.93 588.82C1214.71 588.388 1215.59 588.172 1216.58 588.172C1217.52 588.172 1218.38 588.376 1219.13 588.784C1219.9 589.18 1220.51 589.756 1220.95 590.512C1221.39 591.256 1221.62 592.15 1221.62 593.194C1221.62 593.302 1221.61 593.428 1221.6 593.572C1221.59 593.704 1221.57 593.83 1221.56 593.95H1213.7V592.312H1220.09L1219.01 592.798C1219.01 592.294 1218.9 591.856 1218.7 591.484C1218.5 591.112 1218.21 590.824 1217.85 590.62C1217.49 590.404 1217.07 590.296 1216.59 590.296C1216.11 590.296 1215.69 590.404 1215.32 590.62C1214.96 590.824 1214.67 591.118 1214.47 591.502C1214.27 591.874 1214.16 592.318 1214.16 592.834V593.266C1214.16 593.794 1214.28 594.262 1214.51 594.67C1214.75 595.066 1215.08 595.372 1215.5 595.588C1215.93 595.792 1216.43 595.894 1217.01 595.894C1217.52 595.894 1217.97 595.816 1218.36 595.66C1218.75 595.504 1219.11 595.27 1219.44 594.958L1220.93 596.578C1220.49 597.082 1219.93 597.472 1219.26 597.748C1218.59 598.012 1217.81 598.144 1216.94 598.144ZM1227.64 598.144C1226.73 598.144 1225.91 597.94 1225.18 597.532C1224.44 597.112 1223.86 596.53 1223.43 595.786C1223.01 595.042 1222.8 594.166 1222.8 593.158C1222.8 592.138 1223.01 591.256 1223.43 590.512C1223.86 589.768 1224.44 589.192 1225.18 588.784C1225.91 588.376 1226.73 588.172 1227.64 588.172C1228.46 588.172 1229.17 588.352 1229.78 588.712C1230.4 589.072 1230.87 589.618 1231.21 590.35C1231.54 591.082 1231.71 592.018 1231.71 593.158C1231.71 594.286 1231.55 595.222 1231.22 595.966C1230.9 596.698 1230.43 597.244 1229.82 597.604C1229.22 597.964 1228.49 598.144 1227.64 598.144ZM1228.13 595.84C1228.58 595.84 1229 595.732 1229.37 595.516C1229.74 595.3 1230.04 594.994 1230.25 594.598C1230.48 594.19 1230.59 593.71 1230.59 593.158C1230.59 592.594 1230.48 592.114 1230.25 591.718C1230.04 591.322 1229.74 591.016 1229.37 590.8C1229 590.584 1228.58 590.476 1228.13 590.476C1227.66 590.476 1227.24 590.584 1226.87 590.8C1226.5 591.016 1226.2 591.322 1225.97 591.718C1225.75 592.114 1225.64 592.594 1225.64 593.158C1225.64 593.71 1225.75 594.19 1225.97 594.598C1226.2 594.994 1226.5 595.3 1226.87 595.516C1227.24 595.732 1227.66 595.84 1228.13 595.84ZM1230.67 598V596.02L1230.72 593.14L1230.54 590.278V584.644H1233.35V598H1230.67ZM1237.01 598.144C1236.53 598.144 1236.12 597.982 1235.77 597.658C1235.43 597.322 1235.26 596.896 1235.26 596.38C1235.26 595.864 1235.43 595.45 1235.77 595.138C1236.12 594.814 1236.53 594.652 1237.01 594.652C1237.5 594.652 1237.92 594.814 1238.25 595.138C1238.59 595.45 1238.76 595.864 1238.76 596.38C1238.76 596.896 1238.59 597.322 1238.25 597.658C1237.92 597.982 1237.5 598.144 1237.01 598.144Z" fill="white"/>
<defs>
<filter id="filter0_d_71_372" x="448.774" y="556.072" width="70.9756" height="71.4562" filterUnits="userSpaceOnUse" color-interpolation-filters="sRGB">
<feFlood flood-opacity="0" result="BackgroundImageFix"/>
<feColorMatrix in="SourceAlpha" type="matrix" values="0 0 0 0 0 0 0 0 0 0 0 0 0 0 0 0 0 0 127 0" result="hardAlpha"/>
<feOffset dx="2" dy="2"/>
<feGaussianBlur stdDeviation="2"/>
<feComposite in2="hardAlpha" operator="out"/>
<feColorMatrix type="matrix" values="0 0 0 0 0.30288 0 0 0 0 0.0914749 0 0 0 0 0.532668 0 0 0 1 0"/>
<feBlend mode="normal" in2="BackgroundImageFix" result="effect1_dropShadow_71_372"/>
<feBlend mode="normal" in="SourceGraphic" in2="effect1_dropShadow_71_372" result="shape"/>
</filter>
</defs>
</svg>
