<svg width="55" height="56" viewBox="0 0 55 56" fill="none" xmlns="http://www.w3.org/2000/svg">
<path d="M24.2917 37.7194L40.4479 21.4047L37.2396 18.165L24.2917 31.2398L17.7604 24.6445L14.5521 27.8843L24.2917 37.7194ZM11.4583 48.8272C10.1979 48.8272 9.11892 48.374 8.22135 47.4677C7.32378 46.5613 6.875 45.4717 6.875 44.199V11.8011C6.875 10.5283 7.32378 9.43874 8.22135 8.53237C9.11892 7.62601 10.1979 7.17282 11.4583 7.17282H43.5417C44.8021 7.17282 45.8811 7.62601 46.7786 8.53237C47.6762 9.43874 48.125 10.5283 48.125 11.8011V44.199C48.125 45.4717 47.6762 46.5613 46.7786 47.4677C45.8811 48.374 44.8021 48.8272 43.5417 48.8272H11.4583Z" fill="#1D1B20"/>
</svg>
