<svg width="26" height="26" viewBox="0 0 26 26" fill="none" xmlns="http://www.w3.org/2000/svg">
<g clip-path="url(#clip0_123_33)">
<path d="M17.3333 22.75V20.5833C17.3333 19.4341 16.8768 18.3319 16.0641 17.5192C15.2515 16.7065 14.1493 16.25 13 16.25H5.41665C4.26737 16.25 3.16517 16.7065 2.35252 17.5192C1.53986 18.3319 1.08331 19.4341 1.08331 20.5833V22.75M21.6666 8.66667V15.1667M24.9166 11.9167H18.4166M13.5416 7.58333C13.5416 9.97657 11.6015 11.9167 9.20831 11.9167C6.81508 11.9167 4.87498 9.97657 4.87498 7.58333C4.87498 5.1901 6.81508 3.25 9.20831 3.25C11.6015 3.25 13.5416 5.1901 13.5416 7.58333Z" stroke="white" stroke-width="3" stroke-linecap="round" stroke-linejoin="round"/>
</g>
<defs>
<clipPath id="clip0_123_33">
<rect width="26" height="26" fill="white"/>
</clipPath>
</defs>
</svg>
